<svg xmlns="http://www.w3.org/2000/svg" xmlns:xlink="http://www.w3.org/1999/xlink" width="500" zoomAndPan="magnify" viewBox="0 0 375 374.999991" height="500" preserveAspectRatio="xMidYMid meet" version="1.0"><defs><g/></defs><rect x="-37.5" width="450" fill="#ffffff" y="-37.499999" height="449.999989" fill-opacity="1"/><rect x="-37.5" width="450" fill="#ffffff" y="-37.499999" height="449.999989" fill-opacity="1"/><path fill="#13334d" d="M 180.855469 157.25 L 186.210938 155.164062 L 192.855469 150.203125 L 200.289062 146.035156 L 199.496094 143.15625 L 196.226562 142.757812 L 195.828125 143.15625 C 195.828125 142.757812 196.226562 142.757812 196.226562 142.757812 L 194.144531 140.277344 L 189.980469 138.988281 C 189.980469 138.988281 187.101562 136.507812 186.210938 140.277344 L 182.9375 139.882812 L 181.253906 139.085938 L 179.964844 139.882812 L 177.882812 141.570312 L 175.007812 140.773438 L 175.402344 142.460938 L 171.636719 141.667969 L 170.347656 141.667969 L 168.265625 143.75 L 168.660156 146.628906 L 169.453125 149.113281 L 173.222656 150.402344 L 179.070312 150.003906 L 180.359375 151.296875 L 180.359375 151.691406 L 172.527344 152.089844 C 172.132812 157.945312 172.527344 147.523438 167.570312 152.089844 L 166.28125 145.4375 L 164.59375 144.644531 L 162.117188 147.125 L 159.636719 149.210938 C 160.035156 149.210938 160.429688 149.609375 160.429688 150.003906 L 157.160156 152.882812 L 158.84375 154.96875 L 158.449219 160.328125 L 161.324219 159.929688 L 163.800781 158.242188 L 162.511719 161.519531 L 162.511719 162.808594 L 160.429688 165.289062 L 155.871094 166.578125 L 154.582031 167.375 L 160.828125 169.457031 L 164.992188 171.144531 L 169.15625 168.664062 L 171.636719 164.890625 L 174.511719 163.601562 L 177.386719 160.722656 C 176.988281 160.328125 176.988281 160.328125 176.988281 159.929688 L 177.386719 158.640625 Z M 180.855469 157.25 " fill-opacity="1" fill-rule="nonzero"/><path fill="#13334d" d="M 272.175781 128.566406 L 272.175781 117.351562 L 272.574219 94.921875 C 250.5625 81.222656 221.113281 74.175781 195.433594 72.886719 C 222.003906 72.09375 248.480469 77.847656 272.574219 89.957031 L 339.800781 63.359375 L 187.898438 0.234375 L 35.296875 60.878906 L 71.789062 76.261719 C 70.101562 86.1875 72.183594 98.296875 68.515625 112.386719 C 59.394531 114.074219 58.105469 126.480469 64.351562 129.460938 L 55.625 160.226562 L 58.5 160.226562 C 24.492188 192.582031 2.480469 237.445312 0 287.765625 L 24.492188 287.765625 C 25.78125 259.476562 33.613281 232.976562 46.898438 209.65625 C 55.230469 195.5625 64.746094 183.054688 76.347656 171.839844 C 107.878906 140.277344 151.40625 120.726562 199.496094 120.726562 C 251.75 120.726562 298.652344 143.554688 330.976562 179.679688 C 335.140625 184.644531 339.304688 190.101562 343.371094 195.460938 C 343.765625 196.253906 344.164062 197.148438 345.054688 197.941406 C 359.136719 219.082031 369.050781 243.398438 373.214844 269.898438 C 364.390625 208.265625 325.523438 155.960938 272.175781 128.566406 Z M 101.632812 116.160156 L 101.632812 129.460938 C 94.195312 133.230469 87.15625 137.796875 80.015625 142.757812 L 77.539062 129.855469 C 82.496094 125.6875 82.097656 119.039062 77.539062 114.871094 C 81.703125 101.171875 78.332031 89.164062 80.015625 79.535156 L 102.03125 88.667969 Z M 101.632812 116.160156 " fill-opacity="1" fill-rule="nonzero"/><path fill="#13334d" d="M 333.554688 205.882812 L 329.785156 207.570312 L 329.390625 207.171875 C 331.867188 207.96875 332.265625 204.691406 332.265625 202.609375 C 328.496094 197.644531 324.828125 192.683594 320.664062 188.117188 L 320.265625 194.765625 L 322.746094 199.332031 L 324.035156 201.417969 L 310.75 196.851562 L 310.75 198.539062 L 314.515625 202.308594 L 312.039062 202.308594 L 305.789062 204.792969 L 305.394531 202.707031 L 298.355469 208.960938 L 293.792969 204.792969 C 290.023438 205.585938 293 203.5 293 208.5625 L 292.207031 211.441406 L 289.332031 215.609375 L 285.5625 215.609375 L 286.355469 218.089844 L 284.273438 218.488281 L 282.589844 217.199219 L 278.425781 211.339844 C 279.714844 211.339844 289.230469 215.90625 290.023438 209.65625 L 278.027344 203.402344 L 275.546875 202.113281 L 272.671875 201.714844 L 270.988281 199.628906 L 268.507812 200.027344 L 265.238281 199.628906 L 263.550781 200.425781 L 263.550781 200.027344 L 262.757812 201.316406 L 258.988281 203.003906 L 258.59375 203.003906 C 258.195312 203.003906 257.800781 203.402344 257.304688 203.796875 L 254.824219 206.28125 L 253.039062 206.28125 L 253.039062 207.570312 L 255.917969 207.570312 L 254.230469 208.859375 L 252.542969 211.339844 L 249.667969 217.59375 L 245.902344 221.367188 L 243.820312 223.054688 L 242.132812 224.742188 L 241.339844 231.390625 L 241.738281 233.472656 L 246.695312 234.269531 C 250.460938 228.910156 250.460938 236.351562 252.542969 238.835938 L 252.148438 239.628906 L 251.75 242.109375 L 250.957031 242.109375 C 250.957031 242.109375 250.957031 242.109375 250.5625 242.109375 L 249.769531 238.835938 L 248.480469 236.351562 C 242.628906 239.230469 249.769531 245.882812 246 245.085938 C 242.234375 244.292969 240.152344 249.253906 237.273438 250.941406 L 235.589844 253.027344 L 232.714844 253.425781 L 230.234375 255.109375 L 229.839844 257.59375 C 233.605469 258.386719 234.398438 268.015625 229.046875 265.53125 L 221.609375 265.929688 L 220.320312 266.722656 L 219.921875 275.0625 L 223.195312 277.9375 C 224.882812 277.9375 224.484375 281.214844 226.964844 279.230469 L 231.921875 277.9375 L 233.605469 276.648438 L 234.894531 274.5625 L 239.457031 268.3125 C 239.457031 263.347656 243.621094 267.519531 244.414062 266.226562 L 250.660156 266.625 L 251.058594 266.625 L 255.222656 269.898438 C 258.496094 270.695312 263.949219 276.945312 255.222656 276.152344 L 258.988281 277.441406 L 260.675781 276.152344 L 263.15625 272.378906 L 260.277344 269.503906 L 258.59375 268.707031 C 258.59375 268.3125 250.761719 262.851562 254.824219 261.660156 L 257.304688 263.347656 L 262.261719 267.121094 L 265.535156 272.480469 L 268.011719 275.753906 C 268.011719 276.152344 268.011719 276.152344 268.011719 276.152344 L 268.011719 276.550781 L 270.886719 278.632812 L 273.367188 276.152344 L 270.886719 271.984375 L 272.96875 270.695312 C 273.367188 270.695312 277.136719 269.007812 275.847656 273.570312 L 275.847656 275.257812 L 277.136719 276.054688 L 277.929688 277.742188 L 283.777344 279.03125 C 285.066406 276.945312 287.050781 281.511719 290.023438 278.632812 L 292.503906 278.632812 L 291.710938 283.992188 C 290.917969 286.078125 290.023438 287.269531 289.628906 287.765625 L 361.8125 287.765625 C 360.125 256.996094 350.210938 228.808594 334.050781 204.691406 Z M 257.207031 203.796875 C 257.304688 203.898438 257.304688 203.898438 257.304688 203.898438 C 257.402344 203.898438 257.304688 203.898438 257.207031 203.796875 Z M 257.207031 203.796875 " fill-opacity="1" fill-rule="nonzero"/><path fill="#13334d" d="M 373.3125 269.898438 C 373.414062 270.496094 373.511719 271.089844 373.511719 271.6875 C 373.414062 271.191406 373.414062 270.695312 373.3125 270.296875 C 373.3125 270.097656 373.3125 270 373.3125 269.898438 Z M 373.3125 269.898438 " fill-opacity="1" fill-rule="nonzero"/><path fill="#13334d" d="M 283.382812 287.664062 L 287.148438 287.664062 C 286.257812 287.664062 284.96875 286.871094 283.382812 287.664062 Z M 283.382812 287.664062 " fill-opacity="1" fill-rule="nonzero"/><path fill="#13334d" d="M 146.449219 197.148438 L 143.972656 199.234375 L 141.492188 199.628906 L 141.890625 194.667969 L 139.410156 196.75 L 138.617188 192.582031 L 140.300781 190.5 L 140.300781 183.453125 L 143.574219 181.367188 L 148.136719 176.800781 C 145.65625 176.40625 143.972656 172.238281 140.300781 179.679688 L 137.425781 184.246094 C 137.425781 184.246094 137.425781 184.644531 137.425781 185.039062 L 134.550781 191.691406 L 134.550781 192.085938 C 131.28125 192.085938 132.46875 188.8125 130.785156 191.292969 L 128.304688 193.378906 C 128.703125 193.773438 129.59375 194.171875 129.992188 195.066406 L 125.828125 196.75 L 122.058594 195.957031 L 119.578125 192.1875 L 114.621094 192.1875 L 117.496094 193.476562 L 113.730469 196.75 L 112.9375 197.148438 L 110.457031 193.875 L 106.691406 191.390625 L 105.894531 188.515625 L 97.566406 183.550781 L 96.277344 181.863281 C 90.429688 186.03125 96.277344 176.902344 93.402344 178.09375 L 90.527344 180.175781 L 85.171875 180.175781 C 74.761719 190.597656 65.640625 202.609375 58.203125 215.511719 L 58.996094 216.800781 L 60.285156 217.199219 L 58.601562 220.074219 L 59.890625 221.761719 C 60.285156 221.367188 60.285156 221.367188 60.683594 221.367188 L 61.972656 220.96875 C 61.972656 220.96875 62.367188 221.367188 62.367188 221.761719 L 60.683594 221.367188 L 59.890625 221.761719 L 60.285156 223.847656 L 61.972656 225.929688 L 61.972656 226.328125 L 62.367188 226.328125 L 62.765625 227.121094 L 63.558594 228.808594 L 62.269531 231.6875 L 62.664062 232.480469 L 64.25 236.652344 C 64.25 236.652344 64.25 236.652344 64.25 237.046875 L 63.855469 238.734375 L 67.621094 242.011719 L 68.019531 243.699219 L 65.539062 241.214844 L 62.664062 241.214844 L 66.828125 246.179688 L 65.144531 252.828125 L 62.269531 261.960938 L 61.476562 265.730469 L 62.765625 271.089844 L 63.160156 274.863281 L 68.117188 280.222656 L 71.390625 287.664062 L 73.472656 287.664062 C 73.078125 285.582031 73.078125 284.390625 74.761719 285.582031 L 76.050781 287.664062 L 128.304688 287.664062 C 128.304688 286.375 129.097656 284.789062 131.578125 284.390625 L 136.929688 280.617188 L 138.617188 276.054688 L 139.015625 274.761719 L 141.097656 272.28125 L 145.261719 268.511719 L 145.65625 267.714844 L 148.929688 265.234375 C 150.613281 260.273438 155.574219 262.355469 156.367188 260.667969 L 158.050781 260.273438 C 155.175781 261.960938 157.257812 265.234375 159.738281 261.960938 L 165.089844 260.273438 L 167.171875 258.585938 L 164.695312 258.585938 L 163.40625 258.980469 C 163.007812 258.980469 162.613281 258.980469 162.613281 258.585938 L 163.40625 258.585938 L 161.324219 258.1875 L 159.242188 254.417969 C 163.800781 252.730469 159.636719 249.851562 154.285156 252.730469 L 160.53125 249.453125 L 170.941406 248.164062 L 175.898438 245.285156 L 174.710938 242.40625 L 173.023438 241.117188 L 170.941406 238.238281 L 169.652344 234.46875 L 166.777344 224.9375 C 161.421875 234.070312 159.339844 227.421875 159.339844 227.421875 C 159.738281 221.566406 162.613281 224.144531 158.050781 221.566406 L 154.777344 218.289062 L 148.929688 219.578125 L 148.136719 221.664062 L 147.738281 224.9375 C 143.972656 227.023438 146.054688 228.710938 146.945312 231.984375 C 147.738281 236.15625 140.699219 236.550781 140.699219 237.839844 L 138.617188 245.285156 L 136.136719 241.117188 C 139.90625 233.671875 134.453125 236.550781 132.867188 234.863281 L 125.429688 229.503906 C 124.636719 229.902344 124.140625 229.902344 123.347656 229.902344 L 122.949219 225.335938 L 129.59375 214.519531 L 132.074219 212.433594 L 135.839844 211.144531 L 141.691406 206.578125 L 139.210938 212.832031 L 141.292969 214.121094 C 145.855469 209.15625 144.167969 216.601562 147.539062 213.328125 L 143.375 207.472656 L 143.375 206.179688 L 142.085938 206.179688 L 143.773438 204.890625 L 150.417969 200.722656 L 150.417969 198.636719 L 152.5 196.15625 L 150.8125 194.46875 C 150.8125 194.46875 150.417969 194.070312 150.417969 193.675781 C 150.019531 193.675781 149.625 193.675781 149.128906 193.277344 Z M 153.488281 253.226562 C 153.488281 253.621094 153.488281 253.621094 153.488281 253.621094 L 152.695312 254.417969 L 151.40625 254.8125 Z M 153.488281 253.226562 " fill-opacity="1" fill-rule="nonzero"/><path fill="#13334d" d="M 373.511719 271.6875 C 374.207031 277.046875 374.601562 282.40625 375 287.664062 C 374.703125 282.304688 374.207031 276.945312 373.511719 271.6875 Z M 373.511719 271.6875 " fill-opacity="1" fill-rule="nonzero"/><path fill="#13334d" d="M 175.898438 209.15625 L 175.105469 206.675781 C 175.105469 206.28125 175.105469 206.28125 175.105469 206.28125 L 173.816406 205.484375 L 173.023438 203.796875 L 169.75 200.921875 L 171.832031 199.628906 L 172.230469 197.546875 L 168.460938 192.1875 C 170.148438 188.910156 163.902344 191.390625 165.585938 188.910156 L 164.792969 186.429688 L 163.109375 185.140625 C 166.875 185.535156 163.902344 181.367188 163.109375 181.367188 L 159.835938 181.765625 L 152.398438 184.644531 L 151.109375 187.125 L 150.714844 184.644531 L 154.878906 180.078125 C 155.671875 179.679688 154.085938 176.800781 149.027344 180.476562 L 144.863281 187.523438 L 144.070312 189.207031 L 146.945312 192.484375 L 149.027344 193.277344 C 149.425781 193.277344 149.820312 193.277344 150.316406 193.675781 L 155.671875 194.964844 L 157.355469 193.277344 L 159.835938 197.445312 L 159.042969 199.132812 L 159.835938 199.929688 L 161.917969 200.722656 L 161.917969 204.890625 L 158.644531 209.058594 L 153.6875 209.058594 C 152.894531 208.660156 148.730469 213.226562 154.976562 211.9375 C 159.933594 211.144531 158.25 216.503906 161.222656 217.296875 L 166.578125 219.382812 L 164.496094 215.609375 L 168.660156 219.382812 L 169.949219 215.609375 L 168.265625 211.441406 L 167.472656 208.960938 L 170.742188 211.441406 Z M 154.382812 194.269531 C 154.777344 194.269531 154.777344 194.269531 155.175781 194.667969 C 154.777344 194.667969 154.382812 194.667969 154.382812 194.269531 Z M 157.257812 192.980469 C 156.863281 192.980469 156.863281 192.582031 157.257812 192.582031 Z M 157.257812 192.980469 " fill-opacity="1" fill-rule="nonzero"/><path fill="#13334d" d="M 227.359375 200.425781 L 228.152344 197.941406 C 230.234375 202.90625 232.316406 200.425781 232.316406 200.027344 C 232.714844 194.171875 226.964844 192.980469 229.046875 191.691406 L 231.523438 194.566406 L 232.316406 193.773438 L 231.027344 191.292969 L 231.027344 190.894531 L 234.796875 188.8125 L 236.480469 186.332031 C 234.003906 184.246094 236.878906 185.535156 236.878906 182.558594 L 236.480469 180.871094 L 235.191406 180.078125 L 235.191406 178.886719 C 238.464844 175.613281 237.671875 182.65625 238.070312 180.972656 L 238.464844 176.40625 L 236.78125 173.527344 L 238.464844 170.648438 L 241.738281 163.601562 L 241.738281 161.914062 L 245.007812 160.226562 C 244.613281 159.832031 249.570312 159.433594 247.089844 156.953125 C 243.820312 153.179688 241.738281 157.746094 240.050781 156.554688 L 236.78125 158.640625 L 233.902344 160.328125 L 235.191406 159.53125 C 235.191406 159.136719 242.234375 153.675781 237.273438 154.171875 L 233.109375 155.859375 L 233.109375 153.777344 L 228.945312 153.378906 L 240.152344 151.691406 L 235.984375 149.210938 L 235.589844 147.125 L 230.632812 146.730469 L 225.277344 147.523438 L 235.191406 145.835938 C 234.796875 145.042969 226.46875 140.875 223.59375 144.546875 L 223.59375 144.941406 L 219.03125 144.941406 L 216.550781 147.820312 L 214.46875 150.699219 L 213.675781 151.988281 C 214.074219 151.195312 209.910156 144.050781 209.910156 151.195312 L 208.222656 151.988281 L 207.429688 148.714844 L 206.636719 151.195312 L 206.636719 151.59375 L 206.238281 151.59375 L 205.445312 152.386719 L 206.636719 151.195312 C 205.347656 149.113281 210.800781 147.425781 203.363281 148.316406 L 200.09375 150.003906 L 197.613281 150.796875 C 196.820312 155.363281 194.738281 151.195312 192.65625 153.675781 C 192.257812 154.074219 191.367188 154.472656 190.96875 154.472656 L 190.574219 154.472656 C 188.492188 156.953125 187.699219 156.953125 190.574219 157.746094 L 187.699219 161.519531 C 186.90625 161.121094 174.410156 161.914062 179.863281 166.480469 L 184.03125 168.566406 L 178.179688 170.648438 L 178.574219 173.128906 L 182.742188 174.816406 L 188.09375 176.109375 L 190.175781 180.671875 L 190.96875 182.757812 L 190.96875 189.011719 L 189.679688 191.492188 L 190.078125 191.886719 L 189.285156 193.972656 L 192.558594 193.574219 L 192.160156 193.972656 L 192.558594 193.972656 L 192.558594 196.851562 L 189.582031 196.851562 L 189.582031 201.417969 L 190.871094 198.539062 L 193.351562 200.621094 L 192.953125 202.308594 L 190.078125 203.601562 C 190.078125 203.996094 190.078125 204.394531 190.078125 204.890625 L 187.996094 209.058594 L 187.996094 215.707031 L 189.679688 215.707031 L 189.285156 219.480469 L 189.679688 221.566406 L 190.96875 224.839844 L 193.847656 225.632812 C 194.640625 225.238281 197.117188 232.285156 199.199219 225.632812 L 200.886719 221.863281 L 204.652344 215.210938 L 208.816406 213.921875 L 215.859375 209.355469 C 217.941406 205.585938 221.210938 209.753906 231.226562 202.308594 Z M 227.359375 200.425781 " fill-opacity="1" fill-rule="nonzero"/><path fill="#13334d" d="M 251.851562 283.992188 C 248.578125 282.703125 253.535156 283.199219 251.453125 279.824219 L 251.453125 278.136719 L 247.6875 278.136719 L 232.714844 281.015625 L 225.277344 280.617188 L 219.921875 286.472656 L 219.527344 287.765625 L 264.34375 287.765625 L 259.386719 286.472656 Z M 251.851562 283.992188 " fill-opacity="1" fill-rule="nonzero"/><path fill="#13334d" d="M 266.722656 287.664062 L 278.820312 287.664062 C 273.367188 286.472656 265.929688 283.101562 266.722656 287.664062 Z M 266.722656 287.664062 " fill-opacity="1" fill-rule="nonzero"/><g fill="#000000" fill-opacity="1"><g transform="translate(2.003821, 344.796119)"><g><path d="M 12.796875 -7.171875 L 24.96875 -7.171875 C 25.6875 -7.171875 26.335938 -7.179688 26.921875 -7.203125 C 27.515625 -7.222656 28.015625 -7.28125 28.421875 -7.375 C 29.460938 -6.96875 30.265625 -6.535156 30.828125 -6.078125 C 31.390625 -5.628906 31.671875 -4.890625 31.671875 -3.859375 C 31.671875 -2.503906 31.285156 -1.519531 30.515625 -0.90625 C 29.753906 -0.300781 28.765625 0 27.546875 0 L 7.515625 0 C 6.296875 0 5.28125 -0.164062 4.46875 -0.5 C 3.65625 -0.84375 3.25 -1.507812 3.25 -2.5 L 3.25 -24.703125 C 3.070312 -27.722656 2.9375 -30.191406 2.84375 -32.109375 C 2.75 -34.023438 2.476562 -35.164062 2.03125 -35.53125 C 3.65625 -37.601562 5.820312 -38.640625 8.53125 -38.640625 L 8.796875 -38.640625 C 10.648438 -38.597656 11.78125 -38.222656 12.1875 -37.515625 C 12.59375 -36.816406 12.796875 -35.75 12.796875 -34.3125 Z M 12.796875 -7.171875 "/></g></g></g><g fill="#000000" fill-opacity="1"><g transform="translate(34.011457, 344.796119)"><g><path d="M 18 -11.03125 C 16.914062 -11.03125 15.84375 -11.039062 14.78125 -11.0625 C 13.726562 -11.082031 12.75 -11.09375 11.84375 -11.09375 C 11.84375 -9.65625 12.203125 -8.570312 12.921875 -7.84375 C 13.648438 -7.125 14.890625 -6.765625 16.640625 -6.765625 L 18.8125 -6.765625 C 19.394531 -6.765625 20.070312 -6.84375 20.84375 -7 C 21.613281 -7.15625 22.335938 -7.445312 23.015625 -7.875 C 23.691406 -8.3125 24.117188 -8.910156 24.296875 -9.671875 C 24.296875 -9.804688 24.375 -9.894531 24.53125 -9.9375 C 24.6875 -9.988281 24.832031 -10.015625 24.96875 -10.015625 C 26.144531 -10.015625 27.003906 -9.609375 27.546875 -8.796875 C 28.085938 -7.984375 28.359375 -6.988281 28.359375 -5.8125 C 28.359375 -3.96875 27.769531 -2.601562 26.59375 -1.71875 C 25.414062 -0.84375 23.9375 -0.28125 22.15625 -0.03125 C 20.375 0.21875 18.582031 0.34375 16.78125 0.34375 C 12.175781 0.34375 8.507812 -0.828125 5.78125 -3.171875 C 3.050781 -5.523438 1.6875 -9.296875 1.6875 -14.484375 C 1.6875 -16.828125 2.101562 -18.976562 2.9375 -20.9375 C 3.78125 -22.90625 5.28125 -24.472656 7.4375 -25.640625 C 9.601562 -26.816406 12.648438 -27.40625 16.578125 -27.40625 C 20.679688 -27.40625 23.679688 -26.84375 25.578125 -25.71875 C 27.472656 -24.59375 28.421875 -22.515625 28.421875 -19.484375 C 28.421875 -17.273438 27.910156 -15.5625 26.890625 -14.34375 C 25.878906 -13.125 24.582031 -12.265625 23 -11.765625 C 21.425781 -11.273438 19.757812 -11.03125 18 -11.03125 Z M 16.640625 -20.296875 C 15.515625 -20.296875 14.488281 -20.054688 13.5625 -19.578125 C 12.644531 -19.109375 12.023438 -17.992188 11.703125 -16.234375 C 12.785156 -16.285156 13.96875 -16.351562 15.25 -16.4375 C 16.539062 -16.53125 17.648438 -16.710938 18.578125 -16.984375 C 19.503906 -17.253906 19.96875 -17.679688 19.96875 -18.265625 C 19.96875 -19.035156 19.785156 -19.566406 19.421875 -19.859375 C 19.054688 -20.148438 18.128906 -20.296875 16.640625 -20.296875 Z M 16.640625 -20.296875 "/></g></g></g><g fill="#000000" fill-opacity="1"><g transform="translate(64.462699, 344.796119)"><g><path d="M 30.453125 -6.625 C 30.453125 -5.226562 30.539062 -4.316406 30.71875 -3.890625 C 30.90625 -3.460938 31.15625 -3.113281 31.46875 -2.84375 C 30.613281 -1.800781 29.6875 -1.007812 28.6875 -0.46875 C 27.695312 0.0703125 26.523438 0.34375 25.171875 0.34375 C 23.953125 0.34375 22.9375 0.175781 22.125 -0.15625 C 21.3125 -0.5 20.90625 -1.171875 20.90625 -2.171875 C 20.007812 -1.359375 18.992188 -0.769531 17.859375 -0.40625 C 16.734375 -0.0390625 15.675781 0.171875 14.6875 0.234375 C 13.695312 0.304688 12.929688 0.34375 12.390625 0.34375 C 9.453125 0.34375 7.238281 -0.21875 5.75 -1.34375 C 4.257812 -2.476562 3.265625 -3.96875 2.765625 -5.8125 C 2.273438 -7.664062 2.03125 -9.695312 2.03125 -11.90625 L 2.03125 -12.796875 C 2.164062 -17.890625 3.113281 -21.597656 4.875 -23.921875 C 6.632812 -26.242188 8.957031 -27.40625 11.84375 -27.40625 C 13.15625 -27.40625 14.609375 -27.222656 16.203125 -26.859375 C 17.804688 -26.503906 19.375 -25.398438 20.90625 -23.546875 L 20.90625 -23.828125 C 21.09375 -24.953125 21.421875 -25.851562 21.890625 -26.53125 C 22.367188 -27.207031 23.171875 -27.546875 24.296875 -27.546875 C 25.734375 -27.546875 27.070312 -27.285156 28.3125 -26.765625 C 29.5625 -26.242188 30.613281 -25.421875 31.46875 -24.296875 C 31.101562 -23.929688 30.84375 -23.226562 30.6875 -22.1875 C 30.53125 -21.15625 30.425781 -20.085938 30.375 -18.984375 C 30.332031 -17.878906 30.3125 -17.078125 30.3125 -16.578125 Z M 15.296875 -6.765625 C 15.609375 -6.765625 16.113281 -6.773438 16.8125 -6.796875 C 17.507812 -6.816406 18.242188 -6.882812 19.015625 -7 C 19.785156 -7.113281 20.394531 -7.285156 20.84375 -7.515625 L 20.84375 -17.453125 C 19.125 -18.492188 17.585938 -19.015625 16.234375 -19.015625 C 15.023438 -19.015625 14.023438 -18.628906 13.234375 -17.859375 C 12.441406 -17.097656 12.023438 -16.015625 11.984375 -14.609375 L 11.984375 -13.46875 C 11.984375 -11.125 12.21875 -9.429688 12.6875 -8.390625 C 13.164062 -7.347656 14.035156 -6.804688 15.296875 -6.765625 Z M 15.296875 -6.765625 "/></g></g></g><g fill="#000000" fill-opacity="1"><g transform="translate(98.026737, 344.796119)"><g><path d="M 13.125 -0.8125 C 12.40625 -0.5 11.601562 -0.285156 10.71875 -0.171875 C 9.84375 -0.0546875 8.953125 0 8.046875 0 C 6.921875 0 5.882812 -0.191406 4.9375 -0.578125 C 3.988281 -0.960938 3.40625 -1.898438 3.1875 -3.390625 C 3.1875 -4.691406 3.195312 -5.546875 3.21875 -5.953125 C 3.238281 -6.359375 3.25 -6.628906 3.25 -6.765625 C 3.25 -6.898438 3.25 -7.191406 3.25 -7.640625 L 3.3125 -16.578125 C 3.3125 -17.160156 3.289062 -17.734375 3.25 -18.296875 C 3.207031 -18.867188 3.140625 -19.425781 3.046875 -19.96875 C 3.003906 -20.550781 2.800781 -21.066406 2.4375 -21.515625 C 2.070312 -21.972656 1.6875 -22.359375 1.28125 -22.671875 C 2.144531 -23.796875 3.195312 -24.804688 4.4375 -25.703125 C 5.675781 -26.609375 6.992188 -27.0625 8.390625 -27.0625 C 9.566406 -27.0625 10.613281 -26.722656 11.53125 -26.046875 C 12.457031 -25.367188 12.988281 -24.46875 13.125 -23.34375 C 13.175781 -23.164062 13.203125 -22.988281 13.203125 -22.8125 C 13.203125 -22.8125 13.210938 -22.6875 13.234375 -22.4375 C 13.253906 -22.1875 13.265625 -21.972656 13.265625 -21.796875 C 14.484375 -23.640625 15.609375 -24.957031 16.640625 -25.75 C 17.679688 -26.539062 18.628906 -27.015625 19.484375 -27.171875 C 20.347656 -27.328125 21.070312 -27.40625 21.65625 -27.40625 C 22.695312 -27.40625 23.519531 -26.972656 24.125 -26.109375 C 24.726562 -25.253906 25.03125 -24.3125 25.03125 -23.28125 C 25.03125 -22.375 24.984375 -21.445312 24.890625 -20.5 C 24.804688 -19.550781 24.765625 -19.078125 24.765625 -19.078125 C 24.765625 -19.078125 24.347656 -19.097656 23.515625 -19.140625 C 22.679688 -19.191406 21.859375 -19.21875 21.046875 -19.21875 C 20.003906 -19.21875 18.863281 -18.898438 17.625 -18.265625 C 16.382812 -17.640625 15.320312 -16.582031 14.4375 -15.09375 C 13.5625 -13.601562 13.125 -11.550781 13.125 -8.9375 Z M 13.125 -0.8125 "/></g></g></g><g fill="#000000" fill-opacity="1"><g transform="translate(123.741121, 344.796119)"><g><path d="M 13.328125 -21.796875 C 13.921875 -23.191406 14.703125 -24.269531 15.671875 -25.03125 C 16.640625 -25.800781 17.675781 -26.351562 18.78125 -26.6875 C 19.882812 -27.03125 20.898438 -27.234375 21.828125 -27.296875 C 22.753906 -27.367188 23.441406 -27.40625 23.890625 -27.40625 C 25.648438 -27.40625 27.09375 -26.953125 28.21875 -26.046875 C 29.34375 -25.148438 30.1875 -24 30.75 -22.59375 C 31.320312 -21.195312 31.609375 -19.78125 31.609375 -18.34375 C 31.609375 -17.070312 31.59375 -15.757812 31.5625 -14.40625 C 31.539062 -13.0625 31.53125 -11.753906 31.53125 -10.484375 C 31.53125 -9.898438 31.550781 -9.109375 31.59375 -8.109375 C 31.644531 -7.117188 31.71875 -6.351562 31.8125 -5.8125 C 31.894531 -5.226562 32.101562 -4.722656 32.4375 -4.296875 C 32.78125 -3.867188 33.15625 -3.472656 33.5625 -3.109375 C 32.707031 -1.984375 31.671875 -1.179688 30.453125 -0.703125 C 29.234375 -0.234375 27.898438 0 26.453125 0 C 25.328125 0 24.289062 -0.335938 23.34375 -1.015625 C 22.394531 -1.691406 21.851562 -2.59375 21.71875 -3.71875 C 21.675781 -4.21875 21.644531 -4.703125 21.625 -5.171875 C 21.601562 -5.648438 21.59375 -6.113281 21.59375 -6.5625 C 21.59375 -8.09375 21.613281 -9.398438 21.65625 -10.484375 C 21.695312 -11.566406 21.71875 -12.941406 21.71875 -14.609375 C 21.71875 -16.328125 21.410156 -17.476562 20.796875 -18.0625 C 20.191406 -18.65625 19.328125 -18.953125 18.203125 -18.953125 C 16.847656 -18.953125 15.820312 -18.625 15.125 -17.96875 C 14.425781 -17.3125 13.941406 -16.53125 13.671875 -15.625 C 13.398438 -14.726562 13.265625 -13.921875 13.265625 -13.203125 C 13.222656 -12.929688 13.203125 -12.523438 13.203125 -11.984375 C 13.203125 -11.441406 13.203125 -11.035156 13.203125 -10.765625 L 13.203125 -0.8125 C 12.472656 -0.5 11.664062 -0.285156 10.78125 -0.171875 C 9.90625 -0.0546875 9.019531 0 8.125 0 C 6.988281 0 5.945312 -0.191406 5 -0.578125 C 4.0625 -0.960938 3.476562 -1.898438 3.25 -3.390625 C 3.25 -4.691406 3.257812 -5.546875 3.28125 -5.953125 C 3.300781 -6.359375 3.3125 -6.628906 3.3125 -6.765625 C 3.3125 -6.898438 3.3125 -7.191406 3.3125 -7.640625 L 3.390625 -16.578125 C 3.390625 -17.160156 3.363281 -17.734375 3.3125 -18.296875 C 3.269531 -18.867188 3.203125 -19.425781 3.109375 -19.96875 C 3.066406 -20.550781 2.863281 -21.066406 2.5 -21.515625 C 2.144531 -21.972656 1.765625 -22.359375 1.359375 -22.671875 C 2.210938 -23.796875 3.257812 -24.804688 4.5 -25.703125 C 5.738281 -26.609375 7.054688 -27.0625 8.453125 -27.0625 C 9.628906 -27.0625 10.679688 -26.722656 11.609375 -26.046875 C 12.535156 -25.367188 13.066406 -24.46875 13.203125 -23.34375 C 13.242188 -23.164062 13.265625 -22.988281 13.265625 -22.8125 C 13.265625 -22.8125 13.273438 -22.6875 13.296875 -22.4375 C 13.316406 -22.1875 13.328125 -21.972656 13.328125 -21.796875 Z M 13.328125 -21.796875 "/></g></g></g><g fill="#000000" fill-opacity="1"><g transform="translate(158.658539, 344.796119)"><g><path d="M 3.25 -24.703125 C 3.25 -27.722656 3.210938 -30.191406 3.140625 -32.109375 C 3.078125 -34.023438 2.820312 -35.164062 2.375 -35.53125 C 3.226562 -36.613281 4.128906 -37.367188 5.078125 -37.796875 C 6.023438 -38.222656 7.175781 -38.4375 8.53125 -38.4375 L 26.328125 -38.4375 C 27.046875 -38.4375 27.6875 -38.476562 28.25 -38.5625 C 28.8125 -38.65625 29.253906 -38.863281 29.578125 -39.1875 C 30.609375 -38.78125 31.441406 -38.257812 32.078125 -37.625 C 32.710938 -36.988281 33.03125 -36.15625 33.03125 -35.125 C 33.03125 -33.769531 32.644531 -32.707031 31.875 -31.9375 C 31.101562 -31.175781 30.109375 -30.796875 28.890625 -30.796875 L 12.796875 -30.796875 L 12.796875 -23.890625 L 21.59375 -23.890625 C 22.3125 -23.890625 22.960938 -23.910156 23.546875 -23.953125 C 24.128906 -24.003906 24.582031 -24.117188 24.90625 -24.296875 C 25.9375 -23.890625 26.753906 -23.425781 27.359375 -22.90625 C 27.972656 -22.382812 28.28125 -21.609375 28.28125 -20.578125 C 28.28125 -19.222656 27.894531 -18.160156 27.125 -17.390625 C 26.363281 -16.617188 25.375 -16.234375 24.15625 -16.234375 L 12.796875 -16.234375 L 12.796875 -7.171875 L 26.328125 -7.171875 C 27.046875 -7.171875 27.695312 -7.179688 28.28125 -7.203125 C 28.875 -7.222656 29.375 -7.28125 29.78125 -7.375 C 30.8125 -6.96875 31.609375 -6.535156 32.171875 -6.078125 C 32.742188 -5.628906 33.03125 -4.890625 33.03125 -3.859375 C 33.03125 -2.503906 32.644531 -1.519531 31.875 -0.90625 C 31.101562 -0.300781 30.109375 0 28.890625 0 L 7.515625 0 C 6.296875 0 5.28125 -0.164062 4.46875 -0.5 C 3.65625 -0.84375 3.25 -1.507812 3.25 -2.5 Z M 3.25 -24.703125 "/></g></g></g><g fill="#000000" fill-opacity="1"><g transform="translate(192.696254, 344.796119)"><g><path d="M 13.328125 -21.796875 C 13.921875 -23.191406 14.703125 -24.269531 15.671875 -25.03125 C 16.640625 -25.800781 17.675781 -26.351562 18.78125 -26.6875 C 19.882812 -27.03125 20.898438 -27.234375 21.828125 -27.296875 C 22.753906 -27.367188 23.441406 -27.40625 23.890625 -27.40625 C 25.648438 -27.40625 27.09375 -26.953125 28.21875 -26.046875 C 29.34375 -25.148438 30.1875 -24 30.75 -22.59375 C 31.320312 -21.195312 31.609375 -19.78125 31.609375 -18.34375 C 31.609375 -17.070312 31.59375 -15.757812 31.5625 -14.40625 C 31.539062 -13.0625 31.53125 -11.753906 31.53125 -10.484375 C 31.53125 -9.898438 31.550781 -9.109375 31.59375 -8.109375 C 31.644531 -7.117188 31.71875 -6.351562 31.8125 -5.8125 C 31.894531 -5.226562 32.101562 -4.722656 32.4375 -4.296875 C 32.78125 -3.867188 33.15625 -3.472656 33.5625 -3.109375 C 32.707031 -1.984375 31.671875 -1.179688 30.453125 -0.703125 C 29.234375 -0.234375 27.898438 0 26.453125 0 C 25.328125 0 24.289062 -0.335938 23.34375 -1.015625 C 22.394531 -1.691406 21.851562 -2.59375 21.71875 -3.71875 C 21.675781 -4.21875 21.644531 -4.703125 21.625 -5.171875 C 21.601562 -5.648438 21.59375 -6.113281 21.59375 -6.5625 C 21.59375 -8.09375 21.613281 -9.398438 21.65625 -10.484375 C 21.695312 -11.566406 21.71875 -12.941406 21.71875 -14.609375 C 21.71875 -16.328125 21.410156 -17.476562 20.796875 -18.0625 C 20.191406 -18.65625 19.328125 -18.953125 18.203125 -18.953125 C 16.847656 -18.953125 15.820312 -18.625 15.125 -17.96875 C 14.425781 -17.3125 13.941406 -16.53125 13.671875 -15.625 C 13.398438 -14.726562 13.265625 -13.921875 13.265625 -13.203125 C 13.222656 -12.929688 13.203125 -12.523438 13.203125 -11.984375 C 13.203125 -11.441406 13.203125 -11.035156 13.203125 -10.765625 L 13.203125 -0.8125 C 12.472656 -0.5 11.664062 -0.285156 10.78125 -0.171875 C 9.90625 -0.0546875 9.019531 0 8.125 0 C 6.988281 0 5.945312 -0.191406 5 -0.578125 C 4.0625 -0.960938 3.476562 -1.898438 3.25 -3.390625 C 3.25 -4.691406 3.257812 -5.546875 3.28125 -5.953125 C 3.300781 -6.359375 3.3125 -6.628906 3.3125 -6.765625 C 3.3125 -6.898438 3.3125 -7.191406 3.3125 -7.640625 L 3.390625 -16.578125 C 3.390625 -17.160156 3.363281 -17.734375 3.3125 -18.296875 C 3.269531 -18.867188 3.203125 -19.425781 3.109375 -19.96875 C 3.066406 -20.550781 2.863281 -21.066406 2.5 -21.515625 C 2.144531 -21.972656 1.765625 -22.359375 1.359375 -22.671875 C 2.210938 -23.796875 3.257812 -24.804688 4.5 -25.703125 C 5.738281 -26.609375 7.054688 -27.0625 8.453125 -27.0625 C 9.628906 -27.0625 10.679688 -26.722656 11.609375 -26.046875 C 12.535156 -25.367188 13.066406 -24.46875 13.203125 -23.34375 C 13.242188 -23.164062 13.265625 -22.988281 13.265625 -22.8125 C 13.265625 -22.8125 13.273438 -22.6875 13.296875 -22.4375 C 13.316406 -22.1875 13.328125 -21.972656 13.328125 -21.796875 Z M 13.328125 -21.796875 "/></g></g></g><g fill="#000000" fill-opacity="1"><g transform="translate(227.613664, 344.796119)"><g><path d="M 30.796875 -24.296875 C 30.523438 -24.023438 30.304688 -23.523438 30.140625 -22.796875 C 29.984375 -22.078125 29.867188 -21.289062 29.796875 -20.4375 C 29.734375 -19.582031 29.703125 -18.789062 29.703125 -18.0625 C 29.703125 -17.75 29.710938 -17.46875 29.734375 -17.21875 C 29.765625 -16.96875 29.78125 -16.753906 29.78125 -16.578125 L 29.78125 -2.640625 C 29.78125 -0.472656 29.644531 1.597656 29.375 3.578125 C 29.101562 5.566406 28.503906 7.335938 27.578125 8.890625 C 26.648438 10.453125 25.257812 11.671875 23.40625 12.546875 C 21.5625 13.429688 19.035156 13.875 15.828125 13.875 C 13.941406 13.875 11.992188 13.625 9.984375 13.125 C 7.972656 12.632812 6.289062 11.890625 4.9375 10.890625 C 3.582031 9.898438 2.90625 8.679688 2.90625 7.234375 C 2.90625 6.472656 3.222656 5.609375 3.859375 4.640625 C 4.492188 3.671875 5.238281 3.1875 6.09375 3.1875 C 7.175781 3.1875 8.15625 3.421875 9.03125 3.890625 C 9.914062 4.367188 10.875 4.863281 11.90625 5.375 C 12.945312 5.894531 14.234375 6.203125 15.765625 6.296875 C 17.253906 6.296875 18.3125 6.203125 18.9375 6.015625 C 19.570312 5.835938 19.945312 5.398438 20.0625 4.703125 C 20.175781 4.003906 20.234375 2.890625 20.234375 1.359375 L 20.234375 -2.171875 C 19.328125 -1.359375 18.3125 -0.769531 17.1875 -0.40625 C 16.0625 -0.0390625 15 0.171875 14 0.234375 C 13.007812 0.304688 12.242188 0.34375 11.703125 0.34375 C 8.773438 0.34375 6.566406 -0.21875 5.078125 -1.34375 C 3.585938 -2.476562 2.59375 -3.96875 2.09375 -5.8125 C 1.601562 -7.664062 1.359375 -9.695312 1.359375 -11.90625 L 1.359375 -12.796875 C 1.492188 -17.890625 2.4375 -21.597656 4.1875 -23.921875 C 5.945312 -26.242188 8.273438 -27.40625 11.171875 -27.40625 C 12.472656 -27.40625 13.925781 -27.222656 15.53125 -26.859375 C 17.132812 -26.503906 18.703125 -25.398438 20.234375 -23.546875 L 20.234375 -23.828125 C 20.410156 -24.953125 20.734375 -25.851562 21.203125 -26.53125 C 21.679688 -27.207031 22.488281 -27.546875 23.625 -27.546875 C 25.0625 -27.546875 26.398438 -27.285156 27.640625 -26.765625 C 28.878906 -26.242188 29.929688 -25.421875 30.796875 -24.296875 Z M 20.171875 -17.453125 C 18.453125 -18.492188 16.914062 -19.015625 15.5625 -19.015625 C 14.34375 -19.015625 13.335938 -18.628906 12.546875 -17.859375 C 11.765625 -17.097656 11.347656 -16.015625 11.296875 -14.609375 L 11.296875 -13.46875 C 11.296875 -11.125 11.53125 -9.429688 12 -8.390625 C 12.476562 -7.347656 13.347656 -6.804688 14.609375 -6.765625 C 14.929688 -6.765625 15.441406 -6.773438 16.140625 -6.796875 C 16.835938 -6.816406 17.566406 -6.882812 18.328125 -7 C 19.097656 -7.113281 19.710938 -7.285156 20.171875 -7.515625 Z M 20.171875 -17.453125 "/></g></g></g><g fill="#000000" fill-opacity="1"><g transform="translate(260.636344, 344.796119)"><g><path d="M 12.796875 -7.171875 L 24.96875 -7.171875 C 25.6875 -7.171875 26.335938 -7.179688 26.921875 -7.203125 C 27.515625 -7.222656 28.015625 -7.28125 28.421875 -7.375 C 29.460938 -6.96875 30.265625 -6.535156 30.828125 -6.078125 C 31.390625 -5.628906 31.671875 -4.890625 31.671875 -3.859375 C 31.671875 -2.503906 31.285156 -1.519531 30.515625 -0.90625 C 29.753906 -0.300781 28.765625 0 27.546875 0 L 7.515625 0 C 6.296875 0 5.28125 -0.164062 4.46875 -0.5 C 3.65625 -0.84375 3.25 -1.507812 3.25 -2.5 L 3.25 -24.703125 C 3.070312 -27.722656 2.9375 -30.191406 2.84375 -32.109375 C 2.75 -34.023438 2.476562 -35.164062 2.03125 -35.53125 C 3.65625 -37.601562 5.820312 -38.640625 8.53125 -38.640625 L 8.796875 -38.640625 C 10.648438 -38.597656 11.78125 -38.222656 12.1875 -37.515625 C 12.59375 -36.816406 12.796875 -35.75 12.796875 -34.3125 Z M 12.796875 -7.171875 "/></g></g></g><g fill="#000000" fill-opacity="1"><g transform="translate(292.64397, 344.796119)"><g><path d="M 12.390625 -33.09375 C 12.390625 -32.457031 12.09375 -31.9375 11.5 -31.53125 C 10.914062 -31.125 10.238281 -30.832031 9.46875 -30.65625 C 8.707031 -30.476562 8.054688 -30.390625 7.515625 -30.390625 C 6.472656 -30.390625 5.601562 -30.421875 4.90625 -30.484375 C 4.207031 -30.554688 3.472656 -30.75 2.703125 -31.0625 L 2.703125 -35.390625 C 2.703125 -37.378906 2.476562 -38.617188 2.03125 -39.109375 C 2.664062 -39.921875 3.476562 -40.441406 4.46875 -40.671875 C 5.457031 -40.898438 6.472656 -41.015625 7.515625 -41.015625 C 8.097656 -41.015625 8.757812 -40.898438 9.5 -40.671875 C 10.25 -40.441406 10.90625 -40.125 11.46875 -39.71875 C 12.03125 -39.3125 12.335938 -38.835938 12.390625 -38.296875 Z M 2.984375 -2.984375 C 2.796875 -10.242188 2.710938 -15.742188 2.734375 -19.484375 C 2.765625 -23.234375 2.550781 -25.285156 2.09375 -25.640625 C 3 -26.316406 3.742188 -26.722656 4.328125 -26.859375 C 4.910156 -26.992188 5.878906 -27.0625 7.234375 -27.0625 L 7.515625 -27.0625 C 9.359375 -27.019531 10.640625 -26.648438 11.359375 -25.953125 C 12.085938 -25.253906 12.453125 -24.179688 12.453125 -22.734375 L 12.453125 -5.34375 C 12.585938 -4.625 12.6875 -4.082031 12.75 -3.71875 C 12.820312 -3.363281 12.972656 -3.070312 13.203125 -2.84375 C 12.566406 -1.851562 11.785156 -1.070312 10.859375 -0.5 C 9.929688 0.0625 8.382812 0.34375 6.21875 0.34375 C 5.007812 0.34375 4.175781 0.0390625 3.71875 -0.5625 C 3.269531 -1.175781 3.023438 -1.984375 2.984375 -2.984375 Z M 2.984375 -2.984375 "/></g></g></g><g fill="#000000" fill-opacity="1"><g transform="translate(307.869592, 344.796119)"><g><path d="M 16.515625 -27.40625 C 18.453125 -27.40625 20.253906 -27.203125 21.921875 -26.796875 C 23.585938 -26.390625 24.941406 -25.691406 25.984375 -24.703125 C 27.023438 -23.710938 27.546875 -22.335938 27.546875 -20.578125 C 27.546875 -19.984375 27.316406 -19.328125 26.859375 -18.609375 C 26.410156 -17.890625 25.734375 -17.53125 24.828125 -17.53125 C 23.617188 -17.53125 22.785156 -17.628906 22.328125 -17.828125 C 21.878906 -18.035156 21.539062 -18.273438 21.3125 -18.546875 C 21.09375 -18.816406 20.710938 -19.050781 20.171875 -19.25 C 19.628906 -19.457031 18.679688 -19.5625 17.328125 -19.5625 C 16.515625 -19.5625 15.664062 -19.503906 14.78125 -19.390625 C 13.90625 -19.273438 13.46875 -18.878906 13.46875 -18.203125 C 13.46875 -17.753906 13.984375 -17.359375 15.015625 -17.015625 C 16.054688 -16.679688 17.332031 -16.296875 18.84375 -15.859375 C 20.351562 -15.429688 21.863281 -14.890625 23.375 -14.234375 C 24.882812 -13.585938 26.160156 -12.742188 27.203125 -11.703125 C 28.242188 -10.671875 28.765625 -9.363281 28.765625 -7.78125 C 28.765625 -5.976562 28.253906 -4.535156 27.234375 -3.453125 C 26.222656 -2.367188 24.9375 -1.554688 23.375 -1.015625 C 21.820312 -0.472656 20.207031 -0.113281 18.53125 0.0625 C 16.863281 0.25 15.398438 0.34375 14.140625 0.34375 C 10.578125 0.34375 7.675781 -0.21875 5.4375 -1.34375 C 3.207031 -2.476562 2.09375 -4.238281 2.09375 -6.625 C 2.09375 -7.03125 2.160156 -7.550781 2.296875 -8.1875 C 2.429688 -8.820312 2.679688 -9.394531 3.046875 -9.90625 C 3.410156 -10.425781 3.953125 -10.6875 4.671875 -10.6875 C 6.160156 -10.6875 7.207031 -10.550781 7.8125 -10.28125 C 8.425781 -10.007812 8.820312 -9.679688 9 -9.296875 C 9.175781 -8.921875 9.363281 -8.539062 9.5625 -8.15625 C 9.769531 -7.769531 10.203125 -7.441406 10.859375 -7.171875 C 11.515625 -6.898438 12.609375 -6.765625 14.140625 -6.765625 C 14.859375 -6.765625 15.578125 -6.804688 16.296875 -6.890625 C 17.023438 -6.984375 17.390625 -7.328125 17.390625 -7.921875 C 17.390625 -8.503906 16.867188 -8.988281 15.828125 -9.375 C 14.796875 -9.757812 13.523438 -10.164062 12.015625 -10.59375 C 10.503906 -11.019531 8.976562 -11.59375 7.4375 -12.3125 C 5.90625 -13.039062 4.617188 -13.988281 3.578125 -15.15625 C 2.546875 -16.332031 2.03125 -17.867188 2.03125 -19.765625 C 2.03125 -21.660156 2.503906 -23.132812 3.453125 -24.1875 C 4.398438 -25.25 5.601562 -26.003906 7.0625 -26.453125 C 8.53125 -26.910156 10.097656 -27.179688 11.765625 -27.265625 C 13.441406 -27.359375 15.023438 -27.40625 16.515625 -27.40625 Z M 16.515625 -27.40625 "/></g></g></g><g fill="#000000" fill-opacity="1"><g transform="translate(337.982471, 344.796119)"><g><path d="M 13.328125 -33.296875 L 13.265625 -21.796875 C 13.847656 -23.191406 14.625 -24.269531 15.59375 -25.03125 C 16.5625 -25.800781 17.597656 -26.351562 18.703125 -26.6875 C 19.816406 -27.03125 20.832031 -27.234375 21.75 -27.296875 C 22.675781 -27.367188 23.367188 -27.40625 23.828125 -27.40625 C 25.578125 -27.40625 27.015625 -26.953125 28.140625 -26.046875 C 29.273438 -25.148438 30.125 -24 30.6875 -22.59375 C 31.25 -21.195312 31.53125 -19.78125 31.53125 -18.34375 C 31.53125 -17.070312 31.519531 -15.757812 31.5 -14.40625 C 31.476562 -13.0625 31.46875 -11.753906 31.46875 -10.484375 C 31.46875 -9.898438 31.488281 -9.109375 31.53125 -8.109375 C 31.582031 -7.117188 31.648438 -6.351562 31.734375 -5.8125 C 31.828125 -5.226562 32.039062 -4.722656 32.375 -4.296875 C 32.71875 -3.867188 33.09375 -3.472656 33.5 -3.109375 C 32.644531 -1.984375 31.609375 -1.179688 30.390625 -0.703125 C 29.171875 -0.234375 27.835938 0 26.390625 0 C 25.265625 0 24.226562 -0.335938 23.28125 -1.015625 C 22.332031 -1.691406 21.789062 -2.59375 21.65625 -3.71875 C 21.613281 -4.21875 21.578125 -4.703125 21.546875 -5.171875 C 21.523438 -5.648438 21.515625 -6.113281 21.515625 -6.5625 C 21.515625 -8.09375 21.535156 -9.398438 21.578125 -10.484375 C 21.628906 -11.566406 21.65625 -12.941406 21.65625 -14.609375 C 21.65625 -16.328125 21.347656 -17.476562 20.734375 -18.0625 C 20.128906 -18.65625 19.265625 -18.953125 18.140625 -18.953125 C 16.785156 -18.953125 15.757812 -18.625 15.0625 -17.96875 C 14.363281 -17.3125 13.878906 -16.53125 13.609375 -15.625 C 13.335938 -14.726562 13.203125 -13.921875 13.203125 -13.203125 C 13.148438 -12.929688 13.125 -12.523438 13.125 -11.984375 C 13.125 -11.441406 13.125 -11.035156 13.125 -10.765625 L 13.125 -0.8125 C 12.40625 -0.5 11.601562 -0.285156 10.71875 -0.171875 C 9.84375 -0.0546875 8.953125 0 8.046875 0 C 6.921875 0 5.882812 -0.191406 4.9375 -0.578125 C 3.988281 -0.960938 3.40625 -1.898438 3.1875 -3.390625 C 3.1875 -4.691406 3.195312 -5.546875 3.21875 -5.953125 C 3.238281 -6.359375 3.25 -6.628906 3.25 -6.765625 C 3.25 -6.898438 3.25 -7.191406 3.25 -7.640625 C 3.25 -8.140625 3.257812 -9.144531 3.28125 -10.65625 C 3.300781 -12.164062 3.320312 -13.925781 3.34375 -15.9375 C 3.375 -17.945312 3.398438 -19.941406 3.421875 -21.921875 C 3.441406 -23.910156 3.460938 -25.660156 3.484375 -27.171875 C 3.503906 -28.679688 3.515625 -29.6875 3.515625 -30.1875 C 3.515625 -31.132812 3.4375 -32.101562 3.28125 -33.09375 C 3.125 -34.082031 2.707031 -34.867188 2.03125 -35.453125 C 2.882812 -36.585938 3.804688 -37.398438 4.796875 -37.890625 C 5.796875 -38.390625 6.992188 -38.640625 8.390625 -38.640625 C 9.972656 -38.640625 11.191406 -38.3125 12.046875 -37.65625 C 12.898438 -37 13.328125 -35.546875 13.328125 -33.296875 Z M 13.328125 -33.296875 "/></g></g></g></svg>