<svg xmlns="http://www.w3.org/2000/svg" xmlns:xlink="http://www.w3.org/1999/xlink" width="890" zoomAndPan="magnify" viewBox="0 0 667.5 135.000003" height="180" preserveAspectRatio="xMidYMid meet" version="1.0"><defs><g/><clipPath id="21f0321cf4"><path d="M 2.207031 0 L 664.796875 0 L 664.796875 134.007812 L 2.207031 134.007812 Z M 2.207031 0 " clip-rule="nonzero"/></clipPath><clipPath id="ad056f6c5c"><path d="M 20.800781 2.878906 L 185 2.878906 L 185 128.699219 L 20.800781 128.699219 Z M 20.800781 2.878906 " clip-rule="nonzero"/></clipPath><clipPath id="d77bdeddee"><path d="M 117 85 L 180 85 L 180 128.699219 L 117 128.699219 Z M 117 85 " clip-rule="nonzero"/></clipPath><clipPath id="4e9263426f"><path d="M 145 128 L 147 128 L 147 128.699219 L 145 128.699219 Z M 145 128 " clip-rule="nonzero"/></clipPath><clipPath id="28c8fa2496"><path d="M 46 79 L 98 79 L 98 128.699219 L 46 128.699219 Z M 46 79 " clip-rule="nonzero"/></clipPath><clipPath id="f96a6336cc"><path d="M 184 121 L 185.332031 121 L 185.332031 128.699219 L 184 128.699219 Z M 184 121 " clip-rule="nonzero"/></clipPath><clipPath id="25fb71db5c"><path d="M 117 124 L 137 124 L 137 128.699219 L 117 128.699219 Z M 117 124 " clip-rule="nonzero"/></clipPath><clipPath id="8d3c0c933a"><path d="M 137 127 L 144 127 L 144 128.699219 L 137 128.699219 Z M 137 127 " clip-rule="nonzero"/></clipPath></defs><g clip-path="url(#21f0321cf4)"><path fill="#ffffff" d="M 2.207031 0 L 664.796875 0 L 664.796875 134.007812 L 2.207031 134.007812 Z M 2.207031 0 " fill-opacity="1" fill-rule="nonzero"/><path fill="#ffffff" d="M 2.207031 0 L 664.796875 0 L 664.796875 134.007812 L 2.207031 134.007812 Z M 2.207031 0 " fill-opacity="1" fill-rule="nonzero"/></g><path fill="#13334d" d="M 100.148438 71.578125 L 102.5 70.667969 L 105.414062 68.5 L 108.675781 66.679688 L 108.328125 65.421875 L 106.894531 65.246094 L 106.71875 65.421875 C 106.71875 65.246094 106.894531 65.246094 106.894531 65.246094 L 105.980469 64.164062 L 104.152344 63.601562 C 104.152344 63.601562 102.890625 62.515625 102.5 64.164062 L 101.0625 63.988281 L 100.324219 63.644531 L 99.757812 63.988281 L 98.84375 64.726562 L 97.582031 64.378906 L 97.757812 65.117188 L 96.105469 64.769531 L 95.539062 64.769531 L 94.625 65.679688 L 94.800781 66.9375 L 95.148438 68.023438 L 96.800781 68.585938 L 99.367188 68.414062 L 99.933594 68.976562 L 99.933594 69.148438 L 96.496094 69.324219 C 96.320312 71.878906 96.496094 67.328125 94.320312 69.324219 L 93.753906 66.417969 L 93.015625 66.070312 L 91.929688 67.15625 L 90.839844 68.066406 C 91.015625 68.066406 91.1875 68.238281 91.1875 68.414062 L 89.753906 69.667969 L 90.492188 70.578125 L 90.316406 72.921875 L 91.578125 72.746094 L 92.667969 72.011719 L 92.101562 73.441406 L 92.101562 74.003906 L 91.1875 75.089844 L 89.1875 75.652344 L 88.621094 76 L 91.363281 76.910156 L 93.1875 77.648438 L 95.015625 76.5625 L 96.105469 74.914062 L 97.367188 74.351562 L 98.628906 73.09375 C 98.453125 72.921875 98.453125 72.921875 98.453125 72.746094 L 98.628906 72.183594 Z M 100.148438 71.578125 " fill-opacity="1" fill-rule="nonzero"/><g clip-path="url(#ad056f6c5c)"><path fill="#13334d" d="M 140.21875 59.046875 L 140.21875 54.148438 L 140.390625 44.351562 C 130.734375 38.367188 117.8125 35.289062 106.546875 34.726562 C 118.203125 34.378906 129.820312 36.890625 140.390625 42.183594 L 169.886719 30.5625 L 103.238281 2.988281 L 36.285156 29.480469 L 52.296875 36.199219 C 51.554688 40.535156 52.46875 45.824219 50.859375 51.980469 C 46.859375 52.71875 46.292969 58.136719 49.03125 59.4375 L 45.203125 72.878906 L 46.464844 72.878906 C 31.542969 87.011719 21.886719 106.609375 20.800781 128.589844 L 31.542969 128.589844 C 32.109375 116.234375 35.546875 104.65625 41.375 94.46875 C 45.03125 88.3125 49.207031 82.851562 54.296875 77.949219 C 68.132812 64.164062 87.230469 55.621094 108.328125 55.621094 C 131.253906 55.621094 151.832031 65.59375 166.015625 81.375 C 167.84375 83.542969 169.667969 85.929688 171.453125 88.269531 C 171.625 88.617188 171.800781 89.007812 172.191406 89.351562 C 178.371094 98.585938 182.71875 109.210938 184.546875 120.785156 C 180.675781 93.863281 163.621094 71.011719 140.21875 59.046875 Z M 65.390625 53.628906 L 65.390625 59.4375 C 62.128906 61.085938 59.039062 63.078125 55.90625 65.246094 L 54.820312 59.609375 C 56.996094 57.789062 56.820312 54.886719 54.820312 53.0625 C 56.644531 47.082031 55.167969 41.835938 55.90625 37.628906 L 65.566406 41.617188 Z M 65.390625 53.628906 " fill-opacity="1" fill-rule="nonzero"/></g><g clip-path="url(#d77bdeddee)"><path fill="#13334d" d="M 167.144531 92.820312 L 165.492188 93.558594 L 165.320312 93.386719 C 166.40625 93.730469 166.582031 92.300781 166.582031 91.390625 C 164.925781 89.222656 163.316406 87.054688 161.492188 85.0625 L 161.316406 87.964844 L 162.402344 89.960938 L 162.96875 90.871094 L 157.140625 88.875 L 157.140625 89.613281 L 158.792969 91.261719 L 157.707031 91.261719 L 154.964844 92.34375 L 154.789062 91.433594 L 151.703125 94.164062 L 149.699219 92.34375 C 148.046875 92.691406 149.351562 91.78125 149.351562 93.992188 L 149.003906 95.25 L 147.742188 97.070312 L 146.089844 97.070312 L 146.4375 98.152344 L 145.523438 98.328125 L 144.785156 97.765625 L 142.957031 95.207031 C 143.523438 95.207031 147.699219 97.199219 148.046875 94.46875 L 142.785156 91.738281 L 141.695312 91.175781 L 140.433594 91 L 139.695312 90.089844 L 138.605469 90.261719 L 137.171875 90.089844 L 136.433594 90.4375 L 136.433594 90.261719 L 136.085938 90.828125 L 134.429688 91.5625 L 134.257812 91.5625 C 134.082031 91.5625 133.910156 91.738281 133.691406 91.910156 L 132.605469 92.996094 L 131.820312 92.996094 L 131.820312 93.558594 L 133.082031 93.558594 L 132.34375 94.121094 L 131.601562 95.207031 L 130.339844 97.9375 L 128.6875 99.585938 L 127.773438 100.320312 L 127.035156 101.058594 L 126.6875 103.964844 L 126.863281 104.875 L 129.035156 105.222656 C 130.691406 102.878906 130.691406 106.132812 131.601562 107.214844 L 131.429688 107.5625 L 131.253906 108.644531 L 130.90625 108.644531 C 130.90625 108.644531 130.90625 108.644531 130.734375 108.644531 L 130.386719 107.214844 L 129.820312 106.132812 C 127.253906 107.390625 130.386719 110.292969 128.730469 109.945312 C 127.078125 109.601562 126.164062 111.769531 124.902344 112.503906 L 124.164062 113.414062 L 122.902344 113.589844 L 121.816406 114.324219 L 121.640625 115.410156 C 123.292969 115.757812 123.640625 119.960938 121.292969 118.878906 L 118.03125 119.050781 L 117.464844 119.398438 L 117.289062 123.039062 L 118.726562 124.296875 C 119.464844 124.296875 119.292969 125.730469 120.378906 124.863281 L 122.554688 124.296875 L 123.292969 123.734375 L 123.859375 122.824219 L 125.859375 120.09375 C 125.859375 117.925781 127.6875 119.746094 128.035156 119.183594 L 130.777344 119.355469 L 130.949219 119.355469 L 132.777344 120.785156 C 134.214844 121.132812 136.605469 123.863281 132.777344 123.515625 L 134.429688 124.082031 L 135.171875 123.515625 L 136.257812 121.871094 L 134.996094 120.613281 L 134.257812 120.265625 C 134.257812 120.09375 130.820312 117.707031 132.605469 117.1875 L 133.691406 117.925781 L 135.867188 119.570312 L 137.300781 121.914062 L 138.390625 123.34375 C 138.390625 123.515625 138.390625 123.515625 138.390625 123.515625 L 138.390625 123.691406 L 139.652344 124.601562 L 140.738281 123.515625 L 139.652344 121.695312 L 140.566406 121.132812 C 140.738281 121.132812 142.390625 120.394531 141.828125 122.390625 L 141.828125 123.128906 L 142.390625 123.472656 L 142.742188 124.210938 L 145.308594 124.773438 C 145.871094 123.863281 146.742188 125.859375 148.046875 124.601562 L 149.136719 124.601562 L 148.789062 126.941406 C 148.4375 127.851562 148.046875 128.375 147.875 128.589844 L 179.542969 128.589844 C 178.804688 115.148438 174.453125 102.835938 167.363281 92.300781 Z M 133.648438 91.910156 C 133.691406 91.953125 133.691406 91.953125 133.691406 91.953125 C 133.734375 91.953125 133.691406 91.953125 133.648438 91.910156 Z M 133.648438 91.910156 " fill-opacity="1" fill-rule="nonzero"/></g><path fill="#13334d" d="M 184.589844 120.785156 C 184.632812 121.046875 184.679688 121.304688 184.679688 121.566406 C 184.632812 121.347656 184.632812 121.132812 184.589844 120.960938 C 184.589844 120.871094 184.589844 120.828125 184.589844 120.785156 Z M 184.589844 120.785156 " fill-opacity="1" fill-rule="nonzero"/><g clip-path="url(#4e9263426f)"><path fill="#13334d" d="M 145.132812 128.546875 L 146.785156 128.546875 C 146.394531 128.546875 145.828125 128.199219 145.132812 128.546875 Z M 145.132812 128.546875 " fill-opacity="1" fill-rule="nonzero"/></g><g clip-path="url(#28c8fa2496)"><path fill="#13334d" d="M 85.054688 89.007812 L 83.964844 89.917969 L 82.878906 90.089844 L 83.054688 87.921875 L 81.964844 88.832031 L 81.617188 87.011719 L 82.355469 86.101562 L 82.355469 83.023438 L 83.792969 82.113281 L 85.792969 80.117188 C 84.707031 79.945312 83.964844 78.125 82.355469 81.375 L 81.09375 83.371094 C 81.09375 83.371094 81.09375 83.542969 81.09375 83.714844 L 79.832031 86.621094 L 79.832031 86.796875 C 78.398438 86.796875 78.921875 85.363281 78.179688 86.449219 L 77.09375 87.359375 C 77.265625 87.53125 77.660156 87.707031 77.832031 88.09375 L 76.003906 88.832031 L 74.351562 88.484375 L 73.265625 86.839844 L 71.089844 86.839844 L 72.351562 87.402344 L 70.699219 88.832031 L 70.351562 89.007812 L 69.261719 87.574219 L 67.609375 86.492188 L 67.261719 85.234375 L 63.605469 83.066406 L 63.042969 82.328125 C 60.476562 84.148438 63.042969 80.160156 61.78125 80.683594 L 60.519531 81.59375 L 58.167969 81.59375 C 53.601562 86.144531 49.597656 91.390625 46.335938 97.027344 L 46.683594 97.589844 L 47.25 97.765625 L 46.511719 99.019531 L 47.074219 99.757812 C 47.25 99.585938 47.25 99.585938 47.421875 99.585938 L 47.988281 99.410156 C 47.988281 99.410156 48.164062 99.585938 48.164062 99.757812 L 47.421875 99.585938 L 47.074219 99.757812 L 47.25 100.667969 L 47.988281 101.578125 L 47.988281 101.753906 L 48.164062 101.753906 L 48.335938 102.101562 L 48.683594 102.835938 L 48.121094 104.09375 L 48.292969 104.441406 L 48.988281 106.261719 C 48.988281 106.261719 48.988281 106.261719 48.988281 106.433594 L 48.816406 107.171875 L 50.46875 108.601562 L 50.644531 109.339844 L 49.554688 108.257812 L 48.292969 108.257812 L 50.121094 110.425781 L 49.382812 113.328125 L 48.121094 117.316406 L 47.773438 118.964844 L 48.335938 121.304688 L 48.511719 122.953125 L 50.6875 125.296875 L 52.121094 128.546875 L 53.035156 128.546875 C 52.863281 127.636719 52.863281 127.117188 53.601562 127.636719 L 54.167969 128.546875 L 77.09375 128.546875 C 77.09375 127.984375 77.441406 127.289062 78.527344 127.117188 L 80.878906 125.46875 L 81.617188 123.472656 L 81.792969 122.910156 L 82.703125 121.828125 L 84.53125 120.179688 L 84.707031 119.832031 L 86.140625 118.75 C 86.882812 116.582031 89.054688 117.492188 89.40625 116.753906 L 90.144531 116.582031 C 88.882812 117.316406 89.796875 118.75 90.882812 117.316406 L 93.234375 116.582031 L 94.148438 115.84375 L 93.058594 115.84375 L 92.492188 116.015625 C 92.320312 116.015625 92.144531 116.015625 92.144531 115.84375 L 92.492188 115.84375 L 91.578125 115.671875 L 90.667969 114.023438 C 92.667969 113.285156 90.839844 112.027344 88.492188 113.285156 L 91.230469 111.855469 L 95.800781 111.292969 L 97.976562 110.035156 L 97.453125 108.777344 L 96.714844 108.210938 L 95.800781 106.957031 L 95.234375 105.308594 L 93.972656 101.144531 C 91.625 105.132812 90.710938 102.230469 90.710938 102.230469 C 90.882812 99.671875 92.144531 100.800781 90.144531 99.671875 L 88.707031 98.242188 L 86.140625 98.804688 L 85.792969 99.714844 L 85.621094 101.144531 C 83.964844 102.054688 84.878906 102.792969 85.273438 104.222656 C 85.621094 106.046875 82.53125 106.21875 82.53125 106.78125 L 81.617188 110.035156 L 80.53125 108.210938 C 82.183594 104.960938 79.789062 106.21875 79.09375 105.480469 L 75.832031 103.140625 C 75.484375 103.3125 75.265625 103.3125 74.917969 103.3125 L 74.742188 101.320312 L 77.660156 96.59375 L 78.746094 95.683594 L 80.398438 95.121094 L 82.964844 93.125 L 81.878906 95.855469 L 82.792969 96.421875 C 84.792969 94.253906 84.054688 97.503906 85.53125 96.074219 L 83.707031 93.515625 L 83.707031 92.953125 L 83.140625 92.953125 L 83.878906 92.386719 L 86.792969 90.566406 L 86.792969 89.65625 L 87.707031 88.574219 L 86.96875 87.835938 C 86.96875 87.835938 86.792969 87.664062 86.792969 87.488281 C 86.621094 87.488281 86.445312 87.488281 86.230469 87.316406 Z M 88.144531 113.503906 C 88.144531 113.675781 88.144531 113.675781 88.144531 113.675781 L 87.796875 114.023438 L 87.230469 114.195312 Z M 88.144531 113.503906 " fill-opacity="1" fill-rule="nonzero"/></g><g clip-path="url(#f96a6336cc)"><path fill="#13334d" d="M 184.679688 121.566406 C 184.980469 123.90625 185.15625 126.25 185.332031 128.546875 C 185.199219 126.207031 184.980469 123.863281 184.679688 121.566406 Z M 184.679688 121.566406 " fill-opacity="1" fill-rule="nonzero"/></g><path fill="#13334d" d="M 97.976562 94.253906 L 97.625 93.167969 C 97.625 92.996094 97.625 92.996094 97.625 92.996094 L 97.0625 92.648438 L 96.714844 91.910156 L 95.277344 90.652344 L 96.191406 90.089844 L 96.363281 89.179688 L 94.710938 86.839844 C 95.453125 85.40625 92.710938 86.492188 93.449219 85.40625 L 93.101562 84.324219 L 92.363281 83.761719 C 94.015625 83.933594 92.710938 82.113281 92.363281 82.113281 L 90.925781 82.285156 L 87.664062 83.542969 L 87.097656 84.628906 L 86.925781 83.542969 L 88.753906 81.550781 C 89.101562 81.375 88.402344 80.117188 86.183594 81.722656 L 84.359375 84.800781 L 84.011719 85.539062 L 85.273438 86.96875 L 86.183594 87.316406 C 86.359375 87.316406 86.535156 87.316406 86.75 87.488281 L 89.101562 88.050781 L 89.839844 87.316406 L 90.925781 89.136719 L 90.578125 89.875 L 90.925781 90.21875 L 91.839844 90.566406 L 91.839844 92.386719 L 90.40625 94.207031 L 88.230469 94.207031 C 87.882812 94.035156 86.054688 96.03125 88.796875 95.464844 C 90.972656 95.121094 90.230469 97.460938 91.535156 97.808594 L 93.886719 98.71875 L 92.972656 97.070312 L 94.800781 98.71875 L 95.363281 97.070312 L 94.625 95.25 L 94.277344 94.164062 L 95.710938 95.25 Z M 88.535156 87.75 C 88.707031 87.75 88.707031 87.75 88.882812 87.921875 C 88.707031 87.921875 88.535156 87.921875 88.535156 87.75 Z M 89.796875 87.183594 C 89.621094 87.183594 89.621094 87.011719 89.796875 87.011719 Z M 89.796875 87.183594 " fill-opacity="1" fill-rule="nonzero"/><path fill="#13334d" d="M 120.554688 90.4375 L 120.902344 89.351562 C 121.816406 91.519531 122.726562 90.4375 122.726562 90.261719 C 122.902344 87.707031 120.378906 87.183594 121.292969 86.621094 L 122.378906 87.878906 L 122.726562 87.53125 L 122.164062 86.449219 L 122.164062 86.273438 L 123.816406 85.363281 L 124.554688 84.28125 C 123.46875 83.371094 124.730469 83.933594 124.730469 82.632812 L 124.554688 81.894531 L 123.988281 81.550781 L 123.988281 81.027344 C 125.425781 79.597656 125.078125 82.675781 125.25 81.9375 L 125.425781 79.945312 L 124.6875 78.6875 L 125.425781 77.429688 L 126.863281 74.351562 L 126.863281 73.613281 L 128.296875 72.878906 C 128.121094 72.703125 130.296875 72.53125 129.210938 71.445312 C 127.773438 69.800781 126.863281 71.792969 126.121094 71.273438 L 124.6875 72.183594 L 123.425781 72.921875 L 123.988281 72.574219 C 123.988281 72.402344 127.078125 70.015625 124.902344 70.234375 L 123.078125 70.96875 L 123.078125 70.058594 L 121.25 69.886719 L 126.164062 69.148438 L 124.339844 68.066406 L 124.164062 67.15625 L 121.988281 66.980469 L 119.640625 67.328125 L 123.988281 66.589844 C 123.816406 66.246094 120.160156 64.421875 118.898438 66.027344 L 118.898438 66.199219 L 116.898438 66.199219 L 115.8125 67.457031 L 114.898438 68.714844 L 114.550781 69.277344 C 114.722656 68.933594 112.898438 65.8125 112.898438 68.933594 L 112.15625 69.277344 L 111.808594 67.847656 L 111.460938 68.933594 L 111.460938 69.105469 L 111.285156 69.105469 L 110.9375 69.453125 L 111.285156 69.105469 L 111.460938 68.933594 C 110.894531 68.023438 113.289062 67.285156 110.027344 67.675781 L 108.589844 68.414062 L 107.503906 68.757812 C 107.152344 70.753906 106.242188 68.933594 105.328125 70.015625 C 105.152344 70.191406 104.761719 70.363281 104.585938 70.363281 L 104.414062 70.363281 C 103.5 71.445312 103.152344 71.445312 104.414062 71.792969 L 103.152344 73.441406 C 102.804688 73.269531 97.324219 73.613281 99.714844 75.609375 L 101.542969 76.519531 L 98.976562 77.429688 L 99.148438 78.515625 L 100.976562 79.25 L 103.324219 79.816406 L 104.238281 81.808594 L 104.585938 82.71875 L 104.585938 85.449219 L 104.023438 86.535156 L 104.195312 86.707031 L 103.847656 87.617188 L 105.285156 87.445312 L 105.109375 87.617188 L 105.285156 87.617188 L 105.285156 88.875 L 103.976562 88.875 L 103.976562 90.871094 L 104.542969 89.613281 L 105.632812 90.523438 L 105.457031 91.261719 L 104.195312 91.824219 C 104.195312 91.996094 104.195312 92.171875 104.195312 92.386719 L 103.28125 94.207031 L 103.28125 97.113281 L 104.023438 97.113281 L 103.847656 98.761719 L 104.023438 99.671875 L 104.585938 101.101562 L 105.847656 101.449219 C 106.195312 101.277344 107.285156 104.355469 108.199219 101.449219 L 108.9375 99.800781 L 110.589844 96.898438 L 112.417969 96.332031 L 115.507812 94.339844 C 116.421875 92.691406 117.855469 94.511719 122.25 91.261719 Z M 120.554688 90.4375 " fill-opacity="1" fill-rule="nonzero"/><g clip-path="url(#25fb71db5c)"><path fill="#13334d" d="M 131.296875 126.941406 C 129.863281 126.378906 132.039062 126.59375 131.125 125.121094 L 131.125 124.382812 L 129.472656 124.382812 L 122.902344 125.640625 L 119.640625 125.46875 L 117.289062 128.027344 L 117.117188 128.589844 L 136.78125 128.589844 L 134.605469 128.027344 Z M 131.296875 126.941406 " fill-opacity="1" fill-rule="nonzero"/></g><g clip-path="url(#8d3c0c933a)"><path fill="#13334d" d="M 137.824219 128.546875 L 143.132812 128.546875 C 140.738281 128.027344 137.476562 126.550781 137.824219 128.546875 Z M 137.824219 128.546875 " fill-opacity="1" fill-rule="nonzero"/></g><g fill="#000000" fill-opacity="1"><g transform="translate(185.235313, 91.348501)"><g><path d="M 16.109375 -9.03125 L 31.453125 -9.03125 C 32.359375 -9.03125 33.179688 -9.046875 33.921875 -9.078125 C 34.660156 -9.109375 35.285156 -9.179688 35.796875 -9.296875 C 37.109375 -8.785156 38.117188 -8.242188 38.828125 -7.671875 C 39.535156 -7.097656 39.890625 -6.160156 39.890625 -4.859375 C 39.890625 -3.148438 39.40625 -1.910156 38.4375 -1.140625 C 37.46875 -0.378906 36.21875 0 34.6875 0 L 9.46875 0 C 7.925781 0 6.644531 -0.210938 5.625 -0.640625 C 4.601562 -1.066406 4.09375 -1.90625 4.09375 -3.15625 L 4.09375 -31.109375 C 3.863281 -34.921875 3.691406 -38.03125 3.578125 -40.4375 C 3.460938 -42.851562 3.125 -44.289062 2.5625 -44.75 C 4.601562 -47.363281 7.328125 -48.671875 10.734375 -48.671875 L 11.078125 -48.671875 C 13.410156 -48.609375 14.832031 -48.132812 15.34375 -47.25 C 15.851562 -46.375 16.109375 -45.03125 16.109375 -43.21875 Z M 16.109375 -9.03125 "/></g></g></g><g fill="#000000" fill-opacity="1"><g transform="translate(225.549993, 91.348501)"><g><path d="M 22.671875 -13.890625 C 21.304688 -13.890625 19.957031 -13.90625 18.625 -13.9375 C 17.289062 -13.96875 16.054688 -13.984375 14.921875 -13.984375 C 14.921875 -12.160156 15.375 -10.796875 16.28125 -9.890625 C 17.1875 -8.984375 18.75 -8.53125 20.96875 -8.53125 L 23.6875 -8.53125 C 24.425781 -8.53125 25.28125 -8.628906 26.25 -8.828125 C 27.21875 -9.023438 28.128906 -9.390625 28.984375 -9.921875 C 29.835938 -10.460938 30.375 -11.21875 30.59375 -12.1875 C 30.59375 -12.351562 30.691406 -12.460938 30.890625 -12.515625 C 31.097656 -12.578125 31.285156 -12.609375 31.453125 -12.609375 C 32.929688 -12.609375 34.007812 -12.097656 34.6875 -11.078125 C 35.375 -10.054688 35.71875 -8.804688 35.71875 -7.328125 C 35.71875 -4.992188 34.976562 -3.273438 33.5 -2.171875 C 32.019531 -1.066406 30.15625 -0.359375 27.90625 -0.046875 C 25.664062 0.265625 23.410156 0.421875 21.140625 0.421875 C 15.335938 0.421875 10.71875 -1.050781 7.28125 -4 C 3.84375 -6.957031 2.125 -11.703125 2.125 -18.234375 C 2.125 -21.191406 2.648438 -23.90625 3.703125 -26.375 C 4.753906 -28.851562 6.644531 -30.828125 9.375 -32.296875 C 12.101562 -33.773438 15.9375 -34.515625 20.875 -34.515625 C 26.050781 -34.515625 29.832031 -33.804688 32.21875 -32.390625 C 34.601562 -30.972656 35.796875 -28.359375 35.796875 -24.546875 C 35.796875 -21.765625 35.15625 -19.601562 33.875 -18.0625 C 32.601562 -16.53125 30.972656 -15.453125 28.984375 -14.828125 C 26.992188 -14.203125 24.890625 -13.890625 22.671875 -13.890625 Z M 20.96875 -25.578125 C 19.550781 -25.578125 18.257812 -25.273438 17.09375 -24.671875 C 15.925781 -24.078125 15.144531 -22.671875 14.75 -20.453125 C 16.113281 -20.515625 17.601562 -20.597656 19.21875 -20.703125 C 20.84375 -20.816406 22.234375 -21.046875 23.390625 -21.390625 C 24.554688 -21.734375 25.140625 -22.273438 25.140625 -23.015625 C 25.140625 -23.984375 24.910156 -24.648438 24.453125 -25.015625 C 24.003906 -25.390625 22.84375 -25.578125 20.96875 -25.578125 Z M 20.96875 -25.578125 "/></g></g></g><g fill="#000000" fill-opacity="1"><g transform="translate(263.904344, 91.348501)"><g><path d="M 38.359375 -8.359375 C 38.359375 -6.585938 38.46875 -5.429688 38.6875 -4.890625 C 38.914062 -4.359375 39.234375 -3.921875 39.640625 -3.578125 C 38.554688 -2.273438 37.390625 -1.28125 36.140625 -0.59375 C 34.890625 0.0820312 33.410156 0.421875 31.703125 0.421875 C 30.171875 0.421875 28.894531 0.207031 27.875 -0.21875 C 26.851562 -0.644531 26.34375 -1.484375 26.34375 -2.734375 C 25.195312 -1.703125 23.914062 -0.957031 22.5 -0.5 C 21.082031 -0.0507812 19.75 0.210938 18.5 0.296875 C 17.25 0.378906 16.28125 0.421875 15.59375 0.421875 C 11.90625 0.421875 9.125 -0.285156 7.25 -1.703125 C 5.375 -3.117188 4.125 -4.992188 3.5 -7.328125 C 2.875 -9.660156 2.5625 -12.21875 2.5625 -15 L 2.5625 -16.109375 C 2.726562 -22.523438 3.921875 -27.195312 6.140625 -30.125 C 8.359375 -33.050781 11.285156 -34.515625 14.921875 -34.515625 C 16.566406 -34.515625 18.394531 -34.285156 20.40625 -33.828125 C 22.425781 -33.378906 24.40625 -31.988281 26.34375 -29.65625 L 26.34375 -30 C 26.5625 -31.425781 26.96875 -32.5625 27.5625 -33.40625 C 28.164062 -34.257812 29.175781 -34.6875 30.59375 -34.6875 C 32.414062 -34.6875 34.109375 -34.359375 35.671875 -33.703125 C 37.234375 -33.054688 38.554688 -32.019531 39.640625 -30.59375 C 39.179688 -30.144531 38.851562 -29.265625 38.65625 -27.953125 C 38.457031 -26.648438 38.328125 -25.300781 38.265625 -23.90625 C 38.210938 -22.507812 38.1875 -21.5 38.1875 -20.875 Z M 19.265625 -8.53125 C 19.660156 -8.53125 20.296875 -8.539062 21.171875 -8.5625 C 22.054688 -8.59375 22.984375 -8.675781 23.953125 -8.8125 C 24.921875 -8.957031 25.6875 -9.175781 26.25 -9.46875 L 26.25 -21.984375 C 24.09375 -23.296875 22.160156 -23.953125 20.453125 -23.953125 C 18.921875 -23.953125 17.65625 -23.46875 16.65625 -22.5 C 15.664062 -21.53125 15.144531 -20.164062 15.09375 -18.40625 L 15.09375 -16.96875 C 15.09375 -14.007812 15.390625 -11.875 15.984375 -10.5625 C 16.578125 -9.257812 17.671875 -8.582031 19.265625 -8.53125 Z M 19.265625 -8.53125 "/></g></g></g><g fill="#000000" fill-opacity="1"><g transform="translate(306.179363, 91.348501)"><g><path d="M 16.53125 -1.015625 C 15.625 -0.617188 14.613281 -0.347656 13.5 -0.203125 C 12.394531 -0.0664062 11.273438 0 10.140625 0 C 8.722656 0 7.414062 -0.238281 6.21875 -0.71875 C 5.03125 -1.207031 4.289062 -2.390625 4 -4.265625 C 4 -5.910156 4.015625 -6.988281 4.046875 -7.5 C 4.078125 -8.007812 4.09375 -8.347656 4.09375 -8.515625 C 4.09375 -8.691406 4.09375 -9.0625 4.09375 -9.625 L 4.171875 -20.875 C 4.171875 -21.613281 4.140625 -22.335938 4.078125 -23.046875 C 4.023438 -23.765625 3.941406 -24.460938 3.828125 -25.140625 C 3.773438 -25.878906 3.519531 -26.53125 3.0625 -27.09375 C 2.613281 -27.664062 2.132812 -28.148438 1.625 -28.546875 C 2.695312 -29.972656 4.015625 -31.253906 5.578125 -32.390625 C 7.140625 -33.523438 8.800781 -34.09375 10.5625 -34.09375 C 12.039062 -34.09375 13.363281 -33.664062 14.53125 -32.8125 C 15.695312 -31.957031 16.363281 -30.820312 16.53125 -29.40625 C 16.59375 -29.175781 16.625 -28.945312 16.625 -28.71875 C 16.625 -28.71875 16.632812 -28.5625 16.65625 -28.25 C 16.6875 -27.9375 16.703125 -27.671875 16.703125 -27.453125 C 18.234375 -29.773438 19.648438 -31.429688 20.953125 -32.421875 C 22.265625 -33.421875 23.460938 -34.019531 24.546875 -34.21875 C 25.628906 -34.414062 26.539062 -34.515625 27.28125 -34.515625 C 28.582031 -34.515625 29.613281 -33.972656 30.375 -32.890625 C 31.144531 -31.816406 31.53125 -30.628906 31.53125 -29.328125 C 31.53125 -28.179688 31.472656 -27.007812 31.359375 -25.8125 C 31.253906 -24.625 31.203125 -24.03125 31.203125 -24.03125 C 31.203125 -24.03125 30.675781 -24.054688 29.625 -24.109375 C 28.570312 -24.171875 27.535156 -24.203125 26.515625 -24.203125 C 25.203125 -24.203125 23.765625 -23.800781 22.203125 -23 C 20.640625 -22.207031 19.300781 -20.875 18.1875 -19 C 17.082031 -17.125 16.53125 -14.539062 16.53125 -11.25 Z M 16.53125 -1.015625 "/></g></g></g><g fill="#000000" fill-opacity="1"><g transform="translate(338.567484, 91.348501)"><g><path d="M 16.796875 -27.453125 C 17.535156 -29.210938 18.515625 -30.570312 19.734375 -31.53125 C 20.953125 -32.5 22.253906 -33.195312 23.640625 -33.625 C 25.035156 -34.050781 26.316406 -34.304688 27.484375 -34.390625 C 28.648438 -34.472656 29.519531 -34.515625 30.09375 -34.515625 C 32.300781 -34.515625 34.113281 -33.945312 35.53125 -32.8125 C 36.957031 -31.675781 38.023438 -30.226562 38.734375 -28.46875 C 39.441406 -26.707031 39.796875 -24.914062 39.796875 -23.09375 C 39.796875 -21.507812 39.78125 -19.863281 39.75 -18.15625 C 39.726562 -16.445312 39.71875 -14.800781 39.71875 -13.21875 C 39.71875 -12.476562 39.742188 -11.484375 39.796875 -10.234375 C 39.859375 -8.984375 39.945312 -8.015625 40.0625 -7.328125 C 40.175781 -6.585938 40.445312 -5.945312 40.875 -5.40625 C 41.300781 -4.875 41.769531 -4.378906 42.28125 -3.921875 C 41.195312 -2.503906 39.882812 -1.492188 38.34375 -0.890625 C 36.8125 -0.296875 35.140625 0 33.328125 0 C 31.910156 0 30.601562 -0.425781 29.40625 -1.28125 C 28.207031 -2.132812 27.523438 -3.269531 27.359375 -4.6875 C 27.304688 -5.3125 27.265625 -5.921875 27.234375 -6.515625 C 27.203125 -7.117188 27.1875 -7.703125 27.1875 -8.265625 C 27.1875 -10.203125 27.210938 -11.847656 27.265625 -13.203125 C 27.328125 -14.566406 27.359375 -16.300781 27.359375 -18.40625 C 27.359375 -20.570312 26.972656 -22.019531 26.203125 -22.75 C 25.441406 -23.488281 24.347656 -23.859375 22.921875 -23.859375 C 21.222656 -23.859375 19.929688 -23.445312 19.046875 -22.625 C 18.171875 -21.800781 17.5625 -20.820312 17.21875 -19.6875 C 16.875 -18.550781 16.703125 -17.53125 16.703125 -16.625 C 16.648438 -16.28125 16.625 -15.765625 16.625 -15.078125 C 16.625 -14.398438 16.625 -13.890625 16.625 -13.546875 L 16.625 -1.015625 C 15.707031 -0.617188 14.695312 -0.347656 13.59375 -0.203125 C 12.488281 -0.0664062 11.367188 0 10.234375 0 C 8.804688 0 7.492188 -0.238281 6.296875 -0.71875 C 5.109375 -1.207031 4.375 -2.390625 4.09375 -4.265625 C 4.09375 -5.910156 4.101562 -6.988281 4.125 -7.5 C 4.15625 -8.007812 4.171875 -8.347656 4.171875 -8.515625 C 4.171875 -8.691406 4.171875 -9.0625 4.171875 -9.625 L 4.265625 -20.875 C 4.265625 -21.613281 4.234375 -22.335938 4.171875 -23.046875 C 4.117188 -23.765625 4.035156 -24.460938 3.921875 -25.140625 C 3.859375 -25.878906 3.597656 -26.53125 3.140625 -27.09375 C 2.691406 -27.664062 2.210938 -28.148438 1.703125 -28.546875 C 2.785156 -29.972656 4.109375 -31.253906 5.671875 -32.390625 C 7.234375 -33.523438 8.894531 -34.09375 10.65625 -34.09375 C 12.132812 -34.09375 13.453125 -33.664062 14.609375 -32.8125 C 15.773438 -31.957031 16.445312 -30.820312 16.625 -29.40625 C 16.675781 -29.175781 16.703125 -28.945312 16.703125 -28.71875 C 16.703125 -28.71875 16.71875 -28.5625 16.75 -28.25 C 16.78125 -27.9375 16.796875 -27.671875 16.796875 -27.453125 Z M 16.796875 -27.453125 "/></g></g></g><g fill="#000000" fill-opacity="1"><g transform="translate(382.547131, 91.348501)"><g><path d="M 4.09375 -31.109375 C 4.09375 -34.921875 4.046875 -38.03125 3.953125 -40.4375 C 3.867188 -42.851562 3.546875 -44.289062 2.984375 -44.75 C 4.066406 -46.113281 5.203125 -47.0625 6.390625 -47.59375 C 7.585938 -48.132812 9.035156 -48.40625 10.734375 -48.40625 L 33.15625 -48.40625 C 34.0625 -48.40625 34.867188 -48.460938 35.578125 -48.578125 C 36.296875 -48.691406 36.851562 -48.945312 37.25 -49.34375 C 38.550781 -48.832031 39.597656 -48.179688 40.390625 -47.390625 C 41.191406 -46.597656 41.59375 -45.546875 41.59375 -44.234375 C 41.59375 -42.523438 41.109375 -41.1875 40.140625 -40.21875 C 39.179688 -39.257812 37.929688 -38.78125 36.390625 -38.78125 L 16.109375 -38.78125 L 16.109375 -30.09375 L 27.1875 -30.09375 C 28.09375 -30.09375 28.914062 -30.117188 29.65625 -30.171875 C 30.394531 -30.234375 30.960938 -30.375 31.359375 -30.59375 C 32.671875 -30.082031 33.707031 -29.5 34.46875 -28.84375 C 35.238281 -28.195312 35.625 -27.21875 35.625 -25.90625 C 35.625 -24.207031 35.140625 -22.875 34.171875 -21.90625 C 33.210938 -20.9375 31.960938 -20.453125 30.421875 -20.453125 L 16.109375 -20.453125 L 16.109375 -9.03125 L 33.15625 -9.03125 C 34.0625 -9.03125 34.882812 -9.046875 35.625 -9.078125 C 36.363281 -9.109375 36.988281 -9.179688 37.5 -9.296875 C 38.8125 -8.785156 39.820312 -8.242188 40.53125 -7.671875 C 41.238281 -7.097656 41.59375 -6.160156 41.59375 -4.859375 C 41.59375 -3.148438 41.109375 -1.910156 40.140625 -1.140625 C 39.179688 -0.378906 37.929688 0 36.390625 0 L 9.46875 0 C 7.925781 0 6.644531 -0.210938 5.625 -0.640625 C 4.601562 -1.066406 4.09375 -1.90625 4.09375 -3.15625 Z M 4.09375 -31.109375 "/></g></g></g><g fill="#000000" fill-opacity="1"><g transform="translate(425.418764, 91.348501)"><g><path d="M 16.796875 -27.453125 C 17.535156 -29.210938 18.515625 -30.570312 19.734375 -31.53125 C 20.953125 -32.5 22.253906 -33.195312 23.640625 -33.625 C 25.035156 -34.050781 26.316406 -34.304688 27.484375 -34.390625 C 28.648438 -34.472656 29.519531 -34.515625 30.09375 -34.515625 C 32.300781 -34.515625 34.113281 -33.945312 35.53125 -32.8125 C 36.957031 -31.675781 38.023438 -30.226562 38.734375 -28.46875 C 39.441406 -26.707031 39.796875 -24.914062 39.796875 -23.09375 C 39.796875 -21.507812 39.78125 -19.863281 39.75 -18.15625 C 39.726562 -16.445312 39.71875 -14.800781 39.71875 -13.21875 C 39.71875 -12.476562 39.742188 -11.484375 39.796875 -10.234375 C 39.859375 -8.984375 39.945312 -8.015625 40.0625 -7.328125 C 40.175781 -6.585938 40.445312 -5.945312 40.875 -5.40625 C 41.300781 -4.875 41.769531 -4.378906 42.28125 -3.921875 C 41.195312 -2.503906 39.882812 -1.492188 38.34375 -0.890625 C 36.8125 -0.296875 35.140625 0 33.328125 0 C 31.910156 0 30.601562 -0.425781 29.40625 -1.28125 C 28.207031 -2.132812 27.523438 -3.269531 27.359375 -4.6875 C 27.304688 -5.3125 27.265625 -5.921875 27.234375 -6.515625 C 27.203125 -7.117188 27.1875 -7.703125 27.1875 -8.265625 C 27.1875 -10.203125 27.210938 -11.847656 27.265625 -13.203125 C 27.328125 -14.566406 27.359375 -16.300781 27.359375 -18.40625 C 27.359375 -20.570312 26.972656 -22.019531 26.203125 -22.75 C 25.441406 -23.488281 24.347656 -23.859375 22.921875 -23.859375 C 21.222656 -23.859375 19.929688 -23.445312 19.046875 -22.625 C 18.171875 -21.800781 17.5625 -20.820312 17.21875 -19.6875 C 16.875 -18.550781 16.703125 -17.53125 16.703125 -16.625 C 16.648438 -16.28125 16.625 -15.765625 16.625 -15.078125 C 16.625 -14.398438 16.625 -13.890625 16.625 -13.546875 L 16.625 -1.015625 C 15.707031 -0.617188 14.695312 -0.347656 13.59375 -0.203125 C 12.488281 -0.0664062 11.367188 0 10.234375 0 C 8.804688 0 7.492188 -0.238281 6.296875 -0.71875 C 5.109375 -1.207031 4.375 -2.390625 4.09375 -4.265625 C 4.09375 -5.910156 4.101562 -6.988281 4.125 -7.5 C 4.15625 -8.007812 4.171875 -8.347656 4.171875 -8.515625 C 4.171875 -8.691406 4.171875 -9.0625 4.171875 -9.625 L 4.265625 -20.875 C 4.265625 -21.613281 4.234375 -22.335938 4.171875 -23.046875 C 4.117188 -23.765625 4.035156 -24.460938 3.921875 -25.140625 C 3.859375 -25.878906 3.597656 -26.53125 3.140625 -27.09375 C 2.691406 -27.664062 2.210938 -28.148438 1.703125 -28.546875 C 2.785156 -29.972656 4.109375 -31.253906 5.671875 -32.390625 C 7.234375 -33.523438 8.894531 -34.09375 10.65625 -34.09375 C 12.132812 -34.09375 13.453125 -33.664062 14.609375 -32.8125 C 15.773438 -31.957031 16.445312 -30.820312 16.625 -29.40625 C 16.675781 -29.175781 16.703125 -28.945312 16.703125 -28.71875 C 16.703125 -28.71875 16.71875 -28.5625 16.75 -28.25 C 16.78125 -27.9375 16.796875 -27.671875 16.796875 -27.453125 Z M 16.796875 -27.453125 "/></g></g></g><g fill="#000000" fill-opacity="1"><g transform="translate(469.3984, 91.348501)"><g><path d="M 38.78125 -30.59375 C 38.4375 -30.257812 38.164062 -29.632812 37.96875 -28.71875 C 37.769531 -27.8125 37.628906 -26.816406 37.546875 -25.734375 C 37.460938 -24.660156 37.421875 -23.664062 37.421875 -22.75 C 37.421875 -22.351562 37.429688 -22 37.453125 -21.6875 C 37.484375 -21.375 37.5 -21.101562 37.5 -20.875 L 37.5 -3.328125 C 37.5 -0.597656 37.328125 2.015625 36.984375 4.515625 C 36.648438 7.015625 35.898438 9.242188 34.734375 11.203125 C 33.566406 13.171875 31.816406 14.707031 29.484375 15.8125 C 27.160156 16.914062 23.976562 17.46875 19.9375 17.46875 C 17.550781 17.46875 15.09375 17.15625 12.5625 16.53125 C 10.039062 15.90625 7.925781 14.96875 6.21875 13.71875 C 4.519531 12.46875 3.671875 10.9375 3.671875 9.125 C 3.671875 8.15625 4.066406 7.054688 4.859375 5.828125 C 5.648438 4.609375 6.585938 4 7.671875 4 C 9.035156 4 10.269531 4.296875 11.375 4.890625 C 12.488281 5.492188 13.695312 6.117188 15 6.765625 C 16.3125 7.421875 17.929688 7.804688 19.859375 7.921875 C 21.734375 7.921875 23.066406 7.804688 23.859375 7.578125 C 24.660156 7.359375 25.128906 6.804688 25.265625 5.921875 C 25.410156 5.046875 25.484375 3.640625 25.484375 1.703125 L 25.484375 -2.734375 C 24.347656 -1.703125 23.066406 -0.957031 21.640625 -0.5 C 20.222656 -0.0507812 18.890625 0.210938 17.640625 0.296875 C 16.390625 0.378906 15.425781 0.421875 14.75 0.421875 C 11.050781 0.421875 8.265625 -0.285156 6.390625 -1.703125 C 4.515625 -3.117188 3.265625 -4.992188 2.640625 -7.328125 C 2.015625 -9.660156 1.703125 -12.21875 1.703125 -15 L 1.703125 -16.109375 C 1.867188 -22.523438 3.0625 -27.195312 5.28125 -30.125 C 7.5 -33.050781 10.425781 -34.515625 14.0625 -34.515625 C 15.707031 -34.515625 17.539062 -34.285156 19.5625 -33.828125 C 21.582031 -33.378906 23.554688 -31.988281 25.484375 -29.65625 L 25.484375 -30 C 25.710938 -31.425781 26.125 -32.5625 26.71875 -33.40625 C 27.3125 -34.257812 28.320312 -34.6875 29.75 -34.6875 C 31.5625 -34.6875 33.25 -34.359375 34.8125 -33.703125 C 36.375 -33.054688 37.695312 -32.019531 38.78125 -30.59375 Z M 25.40625 -21.984375 C 23.238281 -23.296875 21.304688 -23.953125 19.609375 -23.953125 C 18.066406 -23.953125 16.796875 -23.46875 15.796875 -22.5 C 14.804688 -21.53125 14.285156 -20.164062 14.234375 -18.40625 L 14.234375 -16.96875 C 14.234375 -14.007812 14.53125 -11.875 15.125 -10.5625 C 15.726562 -9.257812 16.820312 -8.582031 18.40625 -8.53125 C 18.800781 -8.53125 19.441406 -8.539062 20.328125 -8.5625 C 21.210938 -8.59375 22.132812 -8.675781 23.09375 -8.8125 C 24.0625 -8.957031 24.832031 -9.175781 25.40625 -9.46875 Z M 25.40625 -21.984375 "/></g></g></g><g fill="#000000" fill-opacity="1"><g transform="translate(510.991562, 91.348501)"><g><path d="M 16.109375 -9.03125 L 31.453125 -9.03125 C 32.359375 -9.03125 33.179688 -9.046875 33.921875 -9.078125 C 34.660156 -9.109375 35.285156 -9.179688 35.796875 -9.296875 C 37.109375 -8.785156 38.117188 -8.242188 38.828125 -7.671875 C 39.535156 -7.097656 39.890625 -6.160156 39.890625 -4.859375 C 39.890625 -3.148438 39.40625 -1.910156 38.4375 -1.140625 C 37.46875 -0.378906 36.21875 0 34.6875 0 L 9.46875 0 C 7.925781 0 6.644531 -0.210938 5.625 -0.640625 C 4.601562 -1.066406 4.09375 -1.90625 4.09375 -3.15625 L 4.09375 -31.109375 C 3.863281 -34.921875 3.691406 -38.03125 3.578125 -40.4375 C 3.460938 -42.851562 3.125 -44.289062 2.5625 -44.75 C 4.601562 -47.363281 7.328125 -48.671875 10.734375 -48.671875 L 11.078125 -48.671875 C 13.410156 -48.609375 14.832031 -48.132812 15.34375 -47.25 C 15.851562 -46.375 16.109375 -45.03125 16.109375 -43.21875 Z M 16.109375 -9.03125 "/></g></g></g><g fill="#000000" fill-opacity="1"><g transform="translate(551.306231, 91.348501)"><g><path d="M 15.59375 -41.671875 C 15.59375 -40.878906 15.222656 -40.226562 14.484375 -39.71875 C 13.742188 -39.207031 12.890625 -38.835938 11.921875 -38.609375 C 10.960938 -38.378906 10.144531 -38.265625 9.46875 -38.265625 C 8.15625 -38.265625 7.054688 -38.304688 6.171875 -38.390625 C 5.296875 -38.484375 4.375 -38.726562 3.40625 -39.125 L 3.40625 -44.578125 C 3.40625 -47.078125 3.125 -48.640625 2.5625 -49.265625 C 3.351562 -50.285156 4.375 -50.9375 5.625 -51.21875 C 6.875 -51.507812 8.15625 -51.65625 9.46875 -51.65625 C 10.195312 -51.65625 11.03125 -51.507812 11.96875 -51.21875 C 12.90625 -50.9375 13.726562 -50.539062 14.4375 -50.03125 C 15.15625 -49.519531 15.539062 -48.925781 15.59375 -48.25 Z M 3.75 -3.75 C 3.519531 -12.894531 3.421875 -19.828125 3.453125 -24.546875 C 3.484375 -29.265625 3.210938 -31.847656 2.640625 -32.296875 C 3.773438 -33.148438 4.710938 -33.660156 5.453125 -33.828125 C 6.191406 -34.003906 7.414062 -34.09375 9.125 -34.09375 L 9.46875 -34.09375 C 11.789062 -34.039062 13.40625 -33.570312 14.3125 -32.6875 C 15.226562 -31.800781 15.6875 -30.453125 15.6875 -28.640625 L 15.6875 -6.734375 C 15.851562 -5.828125 15.976562 -5.144531 16.0625 -4.6875 C 16.144531 -4.226562 16.332031 -3.859375 16.625 -3.578125 C 15.820312 -2.328125 14.835938 -1.347656 13.671875 -0.640625 C 12.515625 0.0664062 10.570312 0.421875 7.84375 0.421875 C 6.3125 0.421875 5.257812 0.0390625 4.6875 -0.71875 C 4.113281 -1.488281 3.800781 -2.5 3.75 -3.75 Z M 3.75 -3.75 "/></g></g></g><g fill="#000000" fill-opacity="1"><g transform="translate(570.483406, 91.348501)"><g><path d="M 20.796875 -34.515625 C 23.242188 -34.515625 25.515625 -34.257812 27.609375 -33.75 C 29.710938 -33.238281 31.414062 -32.359375 32.71875 -31.109375 C 34.03125 -29.859375 34.6875 -28.125 34.6875 -25.90625 C 34.6875 -25.164062 34.398438 -24.34375 33.828125 -23.4375 C 33.265625 -22.53125 32.414062 -22.078125 31.28125 -22.078125 C 29.75 -22.078125 28.695312 -22.203125 28.125 -22.453125 C 27.5625 -22.710938 27.132812 -23.007812 26.84375 -23.34375 C 26.5625 -23.6875 26.078125 -23.984375 25.390625 -24.234375 C 24.710938 -24.492188 23.519531 -24.625 21.8125 -24.625 C 20.789062 -24.625 19.726562 -24.550781 18.625 -24.40625 C 17.519531 -24.269531 16.96875 -23.773438 16.96875 -22.921875 C 16.96875 -22.359375 17.617188 -21.863281 18.921875 -21.4375 C 20.222656 -21.007812 21.828125 -20.523438 23.734375 -19.984375 C 25.640625 -19.441406 27.539062 -18.757812 29.4375 -17.9375 C 31.34375 -17.113281 32.945312 -16.046875 34.25 -14.734375 C 35.5625 -13.429688 36.21875 -11.785156 36.21875 -9.796875 C 36.21875 -7.523438 35.578125 -5.707031 34.296875 -4.34375 C 33.023438 -2.976562 31.410156 -1.953125 29.453125 -1.265625 C 27.492188 -0.585938 25.460938 -0.140625 23.359375 0.078125 C 21.253906 0.304688 19.40625 0.421875 17.8125 0.421875 C 13.320312 0.421875 9.671875 -0.285156 6.859375 -1.703125 C 4.046875 -3.117188 2.640625 -5.335938 2.640625 -8.359375 C 2.640625 -8.867188 2.722656 -9.519531 2.890625 -10.3125 C 3.066406 -11.101562 3.378906 -11.828125 3.828125 -12.484375 C 4.285156 -13.140625 4.96875 -13.46875 5.875 -13.46875 C 7.75 -13.46875 9.070312 -13.296875 9.84375 -12.953125 C 10.613281 -12.609375 11.109375 -12.195312 11.328125 -11.71875 C 11.554688 -11.238281 11.796875 -10.753906 12.046875 -10.265625 C 12.304688 -9.785156 12.847656 -9.375 13.671875 -9.03125 C 14.503906 -8.695312 15.882812 -8.53125 17.8125 -8.53125 C 18.71875 -8.53125 19.625 -8.582031 20.53125 -8.6875 C 21.445312 -8.800781 21.90625 -9.226562 21.90625 -9.96875 C 21.90625 -10.707031 21.25 -11.316406 19.9375 -11.796875 C 18.632812 -12.285156 17.03125 -12.800781 15.125 -13.34375 C 13.226562 -13.882812 11.3125 -14.609375 9.375 -15.515625 C 7.445312 -16.421875 5.828125 -17.613281 4.515625 -19.09375 C 3.210938 -20.570312 2.5625 -22.503906 2.5625 -24.890625 C 2.5625 -27.273438 3.15625 -29.132812 4.34375 -30.46875 C 5.539062 -31.800781 7.0625 -32.75 8.90625 -33.3125 C 10.75 -33.882812 12.722656 -34.226562 14.828125 -34.34375 C 16.929688 -34.457031 18.921875 -34.515625 20.796875 -34.515625 Z M 20.796875 -34.515625 "/></g></g></g><g fill="#000000" fill-opacity="1"><g transform="translate(608.411578, 91.348501)"><g><path d="M 16.796875 -41.9375 L 16.703125 -27.453125 C 17.441406 -29.210938 18.421875 -30.570312 19.640625 -31.53125 C 20.867188 -32.5 22.175781 -33.195312 23.5625 -33.625 C 24.957031 -34.050781 26.238281 -34.304688 27.40625 -34.390625 C 28.570312 -34.472656 29.4375 -34.515625 30 -34.515625 C 32.21875 -34.515625 34.035156 -33.945312 35.453125 -32.8125 C 36.878906 -31.675781 37.945312 -30.226562 38.65625 -28.46875 C 39.363281 -26.707031 39.71875 -24.914062 39.71875 -23.09375 C 39.71875 -21.507812 39.703125 -19.863281 39.671875 -18.15625 C 39.648438 -16.445312 39.640625 -14.800781 39.640625 -13.21875 C 39.640625 -12.476562 39.664062 -11.484375 39.71875 -10.234375 C 39.769531 -8.984375 39.851562 -8.015625 39.96875 -7.328125 C 40.082031 -6.585938 40.351562 -5.945312 40.78125 -5.40625 C 41.207031 -4.875 41.675781 -4.378906 42.1875 -3.921875 C 41.113281 -2.503906 39.804688 -1.492188 38.265625 -0.890625 C 36.734375 -0.296875 35.054688 0 33.234375 0 C 31.816406 0 30.507812 -0.425781 29.3125 -1.28125 C 28.125 -2.132812 27.445312 -3.269531 27.28125 -4.6875 C 27.21875 -5.3125 27.171875 -5.921875 27.140625 -6.515625 C 27.117188 -7.117188 27.109375 -7.703125 27.109375 -8.265625 C 27.109375 -10.203125 27.132812 -11.847656 27.1875 -13.203125 C 27.25 -14.566406 27.28125 -16.300781 27.28125 -18.40625 C 27.28125 -20.570312 26.894531 -22.019531 26.125 -22.75 C 25.351562 -23.488281 24.257812 -23.859375 22.84375 -23.859375 C 21.132812 -23.859375 19.835938 -23.445312 18.953125 -22.625 C 18.078125 -21.800781 17.46875 -20.820312 17.125 -19.6875 C 16.789062 -18.550781 16.625 -17.53125 16.625 -16.625 C 16.5625 -16.28125 16.53125 -15.765625 16.53125 -15.078125 C 16.53125 -14.398438 16.53125 -13.890625 16.53125 -13.546875 L 16.53125 -1.015625 C 15.625 -0.617188 14.613281 -0.347656 13.5 -0.203125 C 12.394531 -0.0664062 11.273438 0 10.140625 0 C 8.722656 0 7.414062 -0.238281 6.21875 -0.71875 C 5.03125 -1.207031 4.289062 -2.390625 4 -4.265625 C 4 -5.910156 4.015625 -6.988281 4.046875 -7.5 C 4.078125 -8.007812 4.09375 -8.347656 4.09375 -8.515625 C 4.09375 -8.691406 4.09375 -9.0625 4.09375 -9.625 C 4.09375 -10.25 4.101562 -11.515625 4.125 -13.421875 C 4.15625 -15.328125 4.1875 -17.539062 4.21875 -20.0625 C 4.25 -22.59375 4.273438 -25.109375 4.296875 -27.609375 C 4.328125 -30.109375 4.359375 -32.3125 4.390625 -34.21875 C 4.421875 -36.125 4.4375 -37.390625 4.4375 -38.015625 C 4.4375 -39.203125 4.332031 -40.421875 4.125 -41.671875 C 3.925781 -42.929688 3.40625 -43.925781 2.5625 -44.65625 C 3.632812 -46.082031 4.796875 -47.109375 6.046875 -47.734375 C 7.296875 -48.359375 8.800781 -48.671875 10.5625 -48.671875 C 12.550781 -48.671875 14.085938 -48.257812 15.171875 -47.4375 C 16.253906 -46.613281 16.796875 -44.78125 16.796875 -41.9375 Z M 16.796875 -41.9375 "/></g></g></g></svg>