<svg xmlns="http://www.w3.org/2000/svg" xmlns:xlink="http://www.w3.org/1999/xlink" width="890" zoomAndPan="magnify" viewBox="0 0 667.5 135.000003" height="180" preserveAspectRatio="xMidYMid meet" version="1.0"><defs><g/><clipPath id="6c4f78a367"><path d="M 2.207031 0 L 664.796875 0 L 664.796875 134.007812 L 2.207031 134.007812 Z M 2.207031 0 " clip-rule="nonzero"/></clipPath><clipPath id="2e0d61a2be"><path d="M 20.800781 2.878906 L 185 2.878906 L 185 128.699219 L 20.800781 128.699219 Z M 20.800781 2.878906 " clip-rule="nonzero"/></clipPath><clipPath id="fd568a4f10"><path d="M 117 85 L 180 85 L 180 128.699219 L 117 128.699219 Z M 117 85 " clip-rule="nonzero"/></clipPath><clipPath id="0738bfcdb0"><path d="M 145 128 L 147 128 L 147 128.699219 L 145 128.699219 Z M 145 128 " clip-rule="nonzero"/></clipPath><clipPath id="ce08b08cd5"><path d="M 46 79 L 98 79 L 98 128.699219 L 46 128.699219 Z M 46 79 " clip-rule="nonzero"/></clipPath><clipPath id="8f9f0f1cf6"><path d="M 184 121 L 185.332031 121 L 185.332031 128.699219 L 184 128.699219 Z M 184 121 " clip-rule="nonzero"/></clipPath><clipPath id="3df2864c11"><path d="M 117 124 L 137 124 L 137 128.699219 L 117 128.699219 Z M 117 124 " clip-rule="nonzero"/></clipPath><clipPath id="193297ce68"><path d="M 137 127 L 144 127 L 144 128.699219 L 137 128.699219 Z M 137 127 " clip-rule="nonzero"/></clipPath></defs><g clip-path="url(#6c4f78a367)"><path fill="#ffffff" d="M 2.207031 0 L 664.796875 0 L 664.796875 134.007812 L 2.207031 134.007812 Z M 2.207031 0 " fill-opacity="1" fill-rule="nonzero"/><path fill="#ffffff" d="M 2.207031 0 L 664.796875 0 L 664.796875 134.007812 L 2.207031 134.007812 Z M 2.207031 0 " fill-opacity="1" fill-rule="nonzero"/></g><path fill="#13334d" d="M 100.148438 71.578125 L 102.5 70.667969 L 105.414062 68.5 L 108.675781 66.679688 L 108.328125 65.421875 L 106.894531 65.246094 L 106.71875 65.421875 C 106.71875 65.246094 106.894531 65.246094 106.894531 65.246094 L 105.980469 64.164062 L 104.152344 63.601562 C 104.152344 63.601562 102.890625 62.515625 102.5 64.164062 L 101.0625 63.988281 L 100.324219 63.644531 L 99.757812 63.988281 L 98.84375 64.726562 L 97.582031 64.378906 L 97.757812 65.117188 L 96.105469 64.769531 L 95.539062 64.769531 L 94.625 65.679688 L 94.800781 66.9375 L 95.148438 68.023438 L 96.800781 68.585938 L 99.367188 68.414062 L 99.933594 68.976562 L 99.933594 69.148438 L 96.496094 69.324219 C 96.320312 71.878906 96.496094 67.328125 94.320312 69.324219 L 93.753906 66.417969 L 93.015625 66.070312 L 91.929688 67.15625 L 90.839844 68.066406 C 91.015625 68.066406 91.1875 68.238281 91.1875 68.414062 L 89.753906 69.667969 L 90.492188 70.578125 L 90.316406 72.921875 L 91.578125 72.746094 L 92.667969 72.011719 L 92.101562 73.441406 L 92.101562 74.003906 L 91.1875 75.089844 L 89.1875 75.652344 L 88.621094 76 L 91.363281 76.910156 L 93.1875 77.648438 L 95.015625 76.5625 L 96.105469 74.914062 L 97.367188 74.351562 L 98.628906 73.09375 C 98.453125 72.921875 98.453125 72.921875 98.453125 72.746094 L 98.628906 72.183594 Z M 100.148438 71.578125 " fill-opacity="1" fill-rule="nonzero"/><g clip-path="url(#2e0d61a2be)"><path fill="#13334d" d="M 140.21875 59.046875 L 140.21875 54.148438 L 140.390625 44.351562 C 130.734375 38.367188 117.8125 35.289062 106.546875 34.726562 C 118.203125 34.378906 129.820312 36.890625 140.390625 42.183594 L 169.886719 30.5625 L 103.238281 2.988281 L 36.285156 29.480469 L 52.296875 36.199219 C 51.554688 40.535156 52.46875 45.824219 50.859375 51.980469 C 46.859375 52.71875 46.292969 58.136719 49.03125 59.4375 L 45.203125 72.878906 L 46.464844 72.878906 C 31.542969 87.011719 21.886719 106.609375 20.800781 128.589844 L 31.542969 128.589844 C 32.109375 116.234375 35.546875 104.65625 41.375 94.46875 C 45.03125 88.3125 49.207031 82.851562 54.296875 77.949219 C 68.132812 64.164062 87.230469 55.621094 108.328125 55.621094 C 131.253906 55.621094 151.832031 65.59375 166.015625 81.375 C 167.84375 83.542969 169.667969 85.929688 171.453125 88.269531 C 171.625 88.617188 171.800781 89.007812 172.191406 89.351562 C 178.371094 98.585938 182.71875 109.210938 184.546875 120.785156 C 180.675781 93.863281 163.621094 71.011719 140.21875 59.046875 Z M 65.390625 53.628906 L 65.390625 59.4375 C 62.128906 61.085938 59.039062 63.078125 55.90625 65.246094 L 54.820312 59.609375 C 56.996094 57.789062 56.820312 54.886719 54.820312 53.0625 C 56.644531 47.082031 55.167969 41.835938 55.90625 37.628906 L 65.566406 41.617188 Z M 65.390625 53.628906 " fill-opacity="1" fill-rule="nonzero"/></g><g clip-path="url(#fd568a4f10)"><path fill="#13334d" d="M 167.144531 92.820312 L 165.492188 93.558594 L 165.320312 93.386719 C 166.40625 93.730469 166.582031 92.300781 166.582031 91.390625 C 164.925781 89.222656 163.316406 87.054688 161.492188 85.0625 L 161.316406 87.964844 L 162.402344 89.960938 L 162.96875 90.871094 L 157.140625 88.875 L 157.140625 89.613281 L 158.792969 91.261719 L 157.707031 91.261719 L 154.964844 92.34375 L 154.789062 91.433594 L 151.703125 94.164062 L 149.699219 92.34375 C 148.046875 92.691406 149.351562 91.78125 149.351562 93.992188 L 149.003906 95.25 L 147.742188 97.070312 L 146.089844 97.070312 L 146.4375 98.152344 L 145.523438 98.328125 L 144.785156 97.765625 L 142.957031 95.207031 C 143.523438 95.207031 147.699219 97.199219 148.046875 94.46875 L 142.785156 91.738281 L 141.695312 91.175781 L 140.433594 91 L 139.695312 90.089844 L 138.605469 90.261719 L 137.171875 90.089844 L 136.433594 90.4375 L 136.433594 90.261719 L 136.085938 90.828125 L 134.429688 91.5625 L 134.257812 91.5625 C 134.082031 91.5625 133.910156 91.738281 133.691406 91.910156 L 132.605469 92.996094 L 131.820312 92.996094 L 131.820312 93.558594 L 133.082031 93.558594 L 132.34375 94.121094 L 131.601562 95.207031 L 130.339844 97.9375 L 128.6875 99.585938 L 127.773438 100.320312 L 127.035156 101.058594 L 126.6875 103.964844 L 126.863281 104.875 L 129.035156 105.222656 C 130.691406 102.878906 130.691406 106.132812 131.601562 107.214844 L 131.429688 107.5625 L 131.253906 108.644531 L 130.90625 108.644531 C 130.90625 108.644531 130.90625 108.644531 130.734375 108.644531 L 130.386719 107.214844 L 129.820312 106.132812 C 127.253906 107.390625 130.386719 110.292969 128.730469 109.945312 C 127.078125 109.601562 126.164062 111.769531 124.902344 112.503906 L 124.164062 113.414062 L 122.902344 113.589844 L 121.816406 114.324219 L 121.640625 115.410156 C 123.292969 115.757812 123.640625 119.960938 121.292969 118.878906 L 118.03125 119.050781 L 117.464844 119.398438 L 117.289062 123.039062 L 118.726562 124.296875 C 119.464844 124.296875 119.292969 125.730469 120.378906 124.863281 L 122.554688 124.296875 L 123.292969 123.734375 L 123.859375 122.824219 L 125.859375 120.09375 C 125.859375 117.925781 127.6875 119.746094 128.035156 119.183594 L 130.777344 119.355469 L 130.949219 119.355469 L 132.777344 120.785156 C 134.214844 121.132812 136.605469 123.863281 132.777344 123.515625 L 134.429688 124.082031 L 135.171875 123.515625 L 136.257812 121.871094 L 134.996094 120.613281 L 134.257812 120.265625 C 134.257812 120.09375 130.820312 117.707031 132.605469 117.1875 L 133.691406 117.925781 L 135.867188 119.570312 L 137.300781 121.914062 L 138.390625 123.34375 C 138.390625 123.515625 138.390625 123.515625 138.390625 123.515625 L 138.390625 123.691406 L 139.652344 124.601562 L 140.738281 123.515625 L 139.652344 121.695312 L 140.566406 121.132812 C 140.738281 121.132812 142.390625 120.394531 141.828125 122.390625 L 141.828125 123.128906 L 142.390625 123.472656 L 142.742188 124.210938 L 145.308594 124.773438 C 145.871094 123.863281 146.742188 125.859375 148.046875 124.601562 L 149.136719 124.601562 L 148.789062 126.941406 C 148.4375 127.851562 148.046875 128.375 147.875 128.589844 L 179.542969 128.589844 C 178.804688 115.148438 174.453125 102.835938 167.363281 92.300781 Z M 133.648438 91.910156 C 133.691406 91.953125 133.691406 91.953125 133.691406 91.953125 C 133.734375 91.953125 133.691406 91.953125 133.648438 91.910156 Z M 133.648438 91.910156 " fill-opacity="1" fill-rule="nonzero"/></g><path fill="#13334d" d="M 184.589844 120.785156 C 184.632812 121.046875 184.679688 121.304688 184.679688 121.566406 C 184.632812 121.347656 184.632812 121.132812 184.589844 120.960938 C 184.589844 120.871094 184.589844 120.828125 184.589844 120.785156 Z M 184.589844 120.785156 " fill-opacity="1" fill-rule="nonzero"/><g clip-path="url(#0738bfcdb0)"><path fill="#13334d" d="M 145.132812 128.546875 L 146.785156 128.546875 C 146.394531 128.546875 145.828125 128.199219 145.132812 128.546875 Z M 145.132812 128.546875 " fill-opacity="1" fill-rule="nonzero"/></g><g clip-path="url(#ce08b08cd5)"><path fill="#13334d" d="M 85.054688 89.007812 L 83.964844 89.917969 L 82.878906 90.089844 L 83.054688 87.921875 L 81.964844 88.832031 L 81.617188 87.011719 L 82.355469 86.101562 L 82.355469 83.023438 L 83.792969 82.113281 L 85.792969 80.117188 C 84.707031 79.945312 83.964844 78.125 82.355469 81.375 L 81.09375 83.371094 C 81.09375 83.371094 81.09375 83.542969 81.09375 83.714844 L 79.832031 86.621094 L 79.832031 86.796875 C 78.398438 86.796875 78.921875 85.363281 78.179688 86.449219 L 77.09375 87.359375 C 77.265625 87.53125 77.660156 87.707031 77.832031 88.09375 L 76.003906 88.832031 L 74.351562 88.484375 L 73.265625 86.839844 L 71.089844 86.839844 L 72.351562 87.402344 L 70.699219 88.832031 L 70.351562 89.007812 L 69.261719 87.574219 L 67.609375 86.492188 L 67.261719 85.234375 L 63.605469 83.066406 L 63.042969 82.328125 C 60.476562 84.148438 63.042969 80.160156 61.78125 80.683594 L 60.519531 81.59375 L 58.167969 81.59375 C 53.601562 86.144531 49.597656 91.390625 46.335938 97.027344 L 46.683594 97.589844 L 47.25 97.765625 L 46.511719 99.019531 L 47.074219 99.757812 C 47.25 99.585938 47.25 99.585938 47.421875 99.585938 L 47.988281 99.410156 C 47.988281 99.410156 48.164062 99.585938 48.164062 99.757812 L 47.421875 99.585938 L 47.074219 99.757812 L 47.25 100.667969 L 47.988281 101.578125 L 47.988281 101.753906 L 48.164062 101.753906 L 48.335938 102.101562 L 48.683594 102.835938 L 48.121094 104.09375 L 48.292969 104.441406 L 48.988281 106.261719 C 48.988281 106.261719 48.988281 106.261719 48.988281 106.433594 L 48.816406 107.171875 L 50.46875 108.601562 L 50.644531 109.339844 L 49.554688 108.257812 L 48.292969 108.257812 L 50.121094 110.425781 L 49.382812 113.328125 L 48.121094 117.316406 L 47.773438 118.964844 L 48.335938 121.304688 L 48.511719 122.953125 L 50.6875 125.296875 L 52.121094 128.546875 L 53.035156 128.546875 C 52.863281 127.636719 52.863281 127.117188 53.601562 127.636719 L 54.167969 128.546875 L 77.09375 128.546875 C 77.09375 127.984375 77.441406 127.289062 78.527344 127.117188 L 80.878906 125.46875 L 81.617188 123.472656 L 81.792969 122.910156 L 82.703125 121.828125 L 84.53125 120.179688 L 84.707031 119.832031 L 86.140625 118.75 C 86.882812 116.582031 89.054688 117.492188 89.40625 116.753906 L 90.144531 116.582031 C 88.882812 117.316406 89.796875 118.75 90.882812 117.316406 L 93.234375 116.582031 L 94.148438 115.84375 L 93.058594 115.84375 L 92.492188 116.015625 C 92.320312 116.015625 92.144531 116.015625 92.144531 115.84375 L 92.492188 115.84375 L 91.578125 115.671875 L 90.667969 114.023438 C 92.667969 113.285156 90.839844 112.027344 88.492188 113.285156 L 91.230469 111.855469 L 95.800781 111.292969 L 97.976562 110.035156 L 97.453125 108.777344 L 96.714844 108.210938 L 95.800781 106.957031 L 95.234375 105.308594 L 93.972656 101.144531 C 91.625 105.132812 90.710938 102.230469 90.710938 102.230469 C 90.882812 99.671875 92.144531 100.800781 90.144531 99.671875 L 88.707031 98.242188 L 86.140625 98.804688 L 85.792969 99.714844 L 85.621094 101.144531 C 83.964844 102.054688 84.878906 102.792969 85.273438 104.222656 C 85.621094 106.046875 82.53125 106.21875 82.53125 106.78125 L 81.617188 110.035156 L 80.53125 108.210938 C 82.183594 104.960938 79.789062 106.21875 79.09375 105.480469 L 75.832031 103.140625 C 75.484375 103.3125 75.265625 103.3125 74.917969 103.3125 L 74.742188 101.320312 L 77.660156 96.59375 L 78.746094 95.683594 L 80.398438 95.121094 L 82.964844 93.125 L 81.878906 95.855469 L 82.792969 96.421875 C 84.792969 94.253906 84.054688 97.503906 85.53125 96.074219 L 83.707031 93.515625 L 83.707031 92.953125 L 83.140625 92.953125 L 83.878906 92.386719 L 86.792969 90.566406 L 86.792969 89.65625 L 87.707031 88.574219 L 86.96875 87.835938 C 86.96875 87.835938 86.792969 87.664062 86.792969 87.488281 C 86.621094 87.488281 86.445312 87.488281 86.230469 87.316406 Z M 88.144531 113.503906 C 88.144531 113.675781 88.144531 113.675781 88.144531 113.675781 L 87.796875 114.023438 L 87.230469 114.195312 Z M 88.144531 113.503906 " fill-opacity="1" fill-rule="nonzero"/></g><g clip-path="url(#8f9f0f1cf6)"><path fill="#13334d" d="M 184.679688 121.566406 C 184.980469 123.90625 185.15625 126.25 185.332031 128.546875 C 185.199219 126.207031 184.980469 123.863281 184.679688 121.566406 Z M 184.679688 121.566406 " fill-opacity="1" fill-rule="nonzero"/></g><path fill="#13334d" d="M 97.976562 94.253906 L 97.625 93.167969 C 97.625 92.996094 97.625 92.996094 97.625 92.996094 L 97.0625 92.648438 L 96.714844 91.910156 L 95.277344 90.652344 L 96.191406 90.089844 L 96.363281 89.179688 L 94.710938 86.839844 C 95.453125 85.40625 92.710938 86.492188 93.449219 85.40625 L 93.101562 84.324219 L 92.363281 83.761719 C 94.015625 83.933594 92.710938 82.113281 92.363281 82.113281 L 90.925781 82.285156 L 87.664062 83.542969 L 87.097656 84.628906 L 86.925781 83.542969 L 88.753906 81.550781 C 89.101562 81.375 88.402344 80.117188 86.183594 81.722656 L 84.359375 84.800781 L 84.011719 85.539062 L 85.273438 86.96875 L 86.183594 87.316406 C 86.359375 87.316406 86.535156 87.316406 86.75 87.488281 L 89.101562 88.050781 L 89.839844 87.316406 L 90.925781 89.136719 L 90.578125 89.875 L 90.925781 90.21875 L 91.839844 90.566406 L 91.839844 92.386719 L 90.40625 94.207031 L 88.230469 94.207031 C 87.882812 94.035156 86.054688 96.03125 88.796875 95.464844 C 90.972656 95.121094 90.230469 97.460938 91.535156 97.808594 L 93.886719 98.71875 L 92.972656 97.070312 L 94.800781 98.71875 L 95.363281 97.070312 L 94.625 95.25 L 94.277344 94.164062 L 95.710938 95.25 Z M 88.535156 87.75 C 88.707031 87.75 88.707031 87.75 88.882812 87.921875 C 88.707031 87.921875 88.535156 87.921875 88.535156 87.75 Z M 89.796875 87.183594 C 89.621094 87.183594 89.621094 87.011719 89.796875 87.011719 Z M 89.796875 87.183594 " fill-opacity="1" fill-rule="nonzero"/><path fill="#13334d" d="M 120.554688 90.4375 L 120.902344 89.351562 C 121.816406 91.519531 122.726562 90.4375 122.726562 90.261719 C 122.902344 87.707031 120.378906 87.183594 121.292969 86.621094 L 122.378906 87.878906 L 122.726562 87.53125 L 122.164062 86.449219 L 122.164062 86.273438 L 123.816406 85.363281 L 124.554688 84.28125 C 123.46875 83.371094 124.730469 83.933594 124.730469 82.632812 L 124.554688 81.894531 L 123.988281 81.550781 L 123.988281 81.027344 C 125.425781 79.597656 125.078125 82.675781 125.25 81.9375 L 125.425781 79.945312 L 124.6875 78.6875 L 125.425781 77.429688 L 126.863281 74.351562 L 126.863281 73.613281 L 128.296875 72.878906 C 128.121094 72.703125 130.296875 72.53125 129.210938 71.445312 C 127.773438 69.800781 126.863281 71.792969 126.121094 71.273438 L 124.6875 72.183594 L 123.425781 72.921875 L 123.988281 72.574219 C 123.988281 72.402344 127.078125 70.015625 124.902344 70.234375 L 123.078125 70.96875 L 123.078125 70.058594 L 121.25 69.886719 L 126.164062 69.148438 L 124.339844 68.066406 L 124.164062 67.15625 L 121.988281 66.980469 L 119.640625 67.328125 L 123.988281 66.589844 C 123.816406 66.246094 120.160156 64.421875 118.898438 66.027344 L 118.898438 66.199219 L 116.898438 66.199219 L 115.8125 67.457031 L 114.898438 68.714844 L 114.550781 69.277344 C 114.722656 68.933594 112.898438 65.8125 112.898438 68.933594 L 112.15625 69.277344 L 111.808594 67.847656 L 111.460938 68.933594 L 111.460938 69.105469 L 111.285156 69.105469 L 110.9375 69.453125 L 111.285156 69.105469 L 111.460938 68.933594 C 110.894531 68.023438 113.289062 67.285156 110.027344 67.675781 L 108.589844 68.414062 L 107.503906 68.757812 C 107.152344 70.753906 106.242188 68.933594 105.328125 70.015625 C 105.152344 70.191406 104.761719 70.363281 104.585938 70.363281 L 104.414062 70.363281 C 103.5 71.445312 103.152344 71.445312 104.414062 71.792969 L 103.152344 73.441406 C 102.804688 73.269531 97.324219 73.613281 99.714844 75.609375 L 101.542969 76.519531 L 98.976562 77.429688 L 99.148438 78.515625 L 100.976562 79.25 L 103.324219 79.816406 L 104.238281 81.808594 L 104.585938 82.71875 L 104.585938 85.449219 L 104.023438 86.535156 L 104.195312 86.707031 L 103.847656 87.617188 L 105.285156 87.445312 L 105.109375 87.617188 L 105.285156 87.617188 L 105.285156 88.875 L 103.976562 88.875 L 103.976562 90.871094 L 104.542969 89.613281 L 105.632812 90.523438 L 105.457031 91.261719 L 104.195312 91.824219 C 104.195312 91.996094 104.195312 92.171875 104.195312 92.386719 L 103.28125 94.207031 L 103.28125 97.113281 L 104.023438 97.113281 L 103.847656 98.761719 L 104.023438 99.671875 L 104.585938 101.101562 L 105.847656 101.449219 C 106.195312 101.277344 107.285156 104.355469 108.199219 101.449219 L 108.9375 99.800781 L 110.589844 96.898438 L 112.417969 96.332031 L 115.507812 94.339844 C 116.421875 92.691406 117.855469 94.511719 122.25 91.261719 Z M 120.554688 90.4375 " fill-opacity="1" fill-rule="nonzero"/><g clip-path="url(#3df2864c11)"><path fill="#13334d" d="M 131.296875 126.941406 C 129.863281 126.378906 132.039062 126.59375 131.125 125.121094 L 131.125 124.382812 L 129.472656 124.382812 L 122.902344 125.640625 L 119.640625 125.46875 L 117.289062 128.027344 L 117.117188 128.589844 L 136.78125 128.589844 L 134.605469 128.027344 Z M 131.296875 126.941406 " fill-opacity="1" fill-rule="nonzero"/></g><g clip-path="url(#193297ce68)"><path fill="#13334d" d="M 137.824219 128.546875 L 143.132812 128.546875 C 140.738281 128.027344 137.476562 126.550781 137.824219 128.546875 Z M 137.824219 128.546875 " fill-opacity="1" fill-rule="nonzero"/></g><g fill="#000000" fill-opacity="1"><g transform="translate(182.257372, 96.696287)"><g><path d="M 17.265625 -9.671875 L 33.6875 -9.671875 C 34.664062 -9.671875 35.550781 -9.6875 36.34375 -9.71875 C 37.132812 -9.75 37.800781 -9.828125 38.34375 -9.953125 C 39.75 -9.398438 40.832031 -8.820312 41.59375 -8.21875 C 42.351562 -7.613281 42.734375 -6.609375 42.734375 -5.203125 C 42.734375 -3.378906 42.210938 -2.054688 41.171875 -1.234375 C 40.140625 -0.410156 38.804688 0 37.171875 0 L 10.140625 0 C 8.492188 0 7.125 -0.226562 6.03125 -0.6875 C 4.9375 -1.144531 4.390625 -2.039062 4.390625 -3.375 L 4.390625 -33.328125 C 4.140625 -37.410156 3.953125 -40.742188 3.828125 -43.328125 C 3.710938 -45.910156 3.347656 -47.445312 2.734375 -47.9375 C 4.929688 -50.738281 7.851562 -52.140625 11.5 -52.140625 L 11.875 -52.140625 C 14.363281 -52.078125 15.882812 -51.570312 16.4375 -50.625 C 16.988281 -49.6875 17.265625 -48.242188 17.265625 -46.296875 Z M 17.265625 -9.671875 "/></g></g></g><g fill="#000000" fill-opacity="1"><g transform="translate(225.449764, 96.696287)"><g><path d="M 24.296875 -14.890625 C 22.828125 -14.890625 21.378906 -14.898438 19.953125 -14.921875 C 18.523438 -14.953125 17.203125 -14.96875 15.984375 -14.96875 C 15.984375 -13.019531 16.46875 -11.554688 17.4375 -10.578125 C 18.414062 -9.609375 20.09375 -9.125 22.46875 -9.125 L 25.390625 -9.125 C 26.179688 -9.125 27.09375 -9.226562 28.125 -9.4375 C 29.15625 -9.65625 30.128906 -10.050781 31.046875 -10.625 C 31.960938 -11.207031 32.539062 -12.019531 32.78125 -13.0625 C 32.78125 -13.238281 32.882812 -13.359375 33.09375 -13.421875 C 33.3125 -13.484375 33.507812 -13.515625 33.6875 -13.515625 C 35.269531 -13.515625 36.425781 -12.96875 37.15625 -11.875 C 37.894531 -10.78125 38.265625 -9.441406 38.265625 -7.859375 C 38.265625 -5.359375 37.472656 -3.515625 35.890625 -2.328125 C 34.304688 -1.140625 32.3125 -0.378906 29.90625 -0.046875 C 27.5 0.285156 25.078125 0.453125 22.640625 0.453125 C 16.429688 0.453125 11.484375 -1.128906 7.796875 -4.296875 C 4.117188 -7.460938 2.28125 -12.546875 2.28125 -19.546875 C 2.28125 -22.710938 2.84375 -25.617188 3.96875 -28.265625 C 5.09375 -30.910156 7.113281 -33.023438 10.03125 -34.609375 C 12.957031 -36.191406 17.070312 -36.984375 22.375 -36.984375 C 27.914062 -36.984375 31.960938 -36.222656 34.515625 -34.703125 C 37.066406 -33.179688 38.34375 -30.378906 38.34375 -26.296875 C 38.34375 -23.316406 37.65625 -21.003906 36.28125 -19.359375 C 34.914062 -17.710938 33.164062 -16.554688 31.03125 -15.890625 C 28.90625 -15.222656 26.660156 -14.890625 24.296875 -14.890625 Z M 22.46875 -27.390625 C 20.945312 -27.390625 19.5625 -27.066406 18.3125 -26.421875 C 17.0625 -25.785156 16.222656 -24.285156 15.796875 -21.921875 C 17.253906 -21.972656 18.847656 -22.0625 20.578125 -22.1875 C 22.316406 -22.3125 23.8125 -22.554688 25.0625 -22.921875 C 26.3125 -23.285156 26.9375 -23.863281 26.9375 -24.65625 C 26.9375 -25.6875 26.691406 -26.398438 26.203125 -26.796875 C 25.710938 -27.191406 24.46875 -27.390625 22.46875 -27.390625 Z M 22.46875 -27.390625 "/></g></g></g><g fill="#000000" fill-opacity="1"><g transform="translate(266.541896, 96.696287)"><g><path d="M 41.09375 -8.953125 C 41.09375 -7.066406 41.210938 -5.832031 41.453125 -5.25 C 41.703125 -4.675781 42.035156 -4.203125 42.453125 -3.828125 C 41.296875 -2.429688 40.046875 -1.367188 38.703125 -0.640625 C 37.367188 0.0859375 35.789062 0.453125 33.96875 0.453125 C 32.320312 0.453125 30.953125 0.226562 29.859375 -0.21875 C 28.765625 -0.675781 28.21875 -1.578125 28.21875 -2.921875 C 27 -1.828125 25.628906 -1.035156 24.109375 -0.546875 C 22.585938 -0.0546875 21.15625 0.226562 19.8125 0.3125 C 18.476562 0.40625 17.441406 0.453125 16.703125 0.453125 C 12.753906 0.453125 9.773438 -0.304688 7.765625 -1.828125 C 5.753906 -3.347656 4.410156 -5.351562 3.734375 -7.84375 C 3.066406 -10.34375 2.734375 -13.085938 2.734375 -16.078125 L 2.734375 -17.265625 C 2.921875 -24.140625 4.203125 -29.144531 6.578125 -32.28125 C 8.953125 -35.414062 12.085938 -36.984375 15.984375 -36.984375 C 17.742188 -36.984375 19.703125 -36.738281 21.859375 -36.25 C 24.023438 -35.757812 26.144531 -34.269531 28.21875 -31.78125 L 28.21875 -32.140625 C 28.457031 -33.660156 28.894531 -34.878906 29.53125 -35.796875 C 30.175781 -36.710938 31.257812 -37.171875 32.78125 -37.171875 C 34.726562 -37.171875 36.535156 -36.816406 38.203125 -36.109375 C 39.878906 -35.410156 41.296875 -34.300781 42.453125 -32.78125 C 41.972656 -32.289062 41.625 -31.34375 41.40625 -29.9375 C 41.195312 -28.539062 41.0625 -27.097656 41 -25.609375 C 40.9375 -24.117188 40.90625 -23.039062 40.90625 -22.375 Z M 20.640625 -9.125 C 21.066406 -9.125 21.75 -9.140625 22.6875 -9.171875 C 23.632812 -9.203125 24.625 -9.289062 25.65625 -9.4375 C 26.695312 -9.59375 27.519531 -9.828125 28.125 -10.140625 L 28.125 -23.5625 C 25.8125 -24.957031 23.742188 -25.65625 21.921875 -25.65625 C 20.273438 -25.65625 18.914062 -25.132812 17.84375 -24.09375 C 16.78125 -23.0625 16.21875 -21.601562 16.15625 -19.71875 L 16.15625 -18.171875 C 16.15625 -15.003906 16.472656 -12.71875 17.109375 -11.3125 C 17.753906 -9.914062 18.929688 -9.1875 20.640625 -9.125 Z M 20.640625 -9.125 "/></g></g></g><g fill="#000000" fill-opacity="1"><g transform="translate(311.83456, 96.696287)"><g><path d="M 17.71875 -1.09375 C 16.738281 -0.664062 15.65625 -0.375 14.46875 -0.21875 C 13.28125 -0.0703125 12.078125 0 10.859375 0 C 9.335938 0 7.9375 -0.253906 6.65625 -0.765625 C 5.382812 -1.285156 4.597656 -2.550781 4.296875 -4.5625 C 4.296875 -6.332031 4.3125 -7.488281 4.34375 -8.03125 C 4.375 -8.582031 4.390625 -8.945312 4.390625 -9.125 C 4.390625 -9.3125 4.390625 -9.707031 4.390625 -10.3125 L 4.46875 -22.375 C 4.46875 -23.164062 4.4375 -23.941406 4.375 -24.703125 C 4.320312 -25.460938 4.234375 -26.207031 4.109375 -26.9375 C 4.046875 -27.726562 3.769531 -28.425781 3.28125 -29.03125 C 2.800781 -29.644531 2.285156 -30.164062 1.734375 -30.59375 C 2.890625 -32.113281 4.300781 -33.484375 5.96875 -34.703125 C 7.644531 -35.921875 9.429688 -36.53125 11.328125 -36.53125 C 12.910156 -36.53125 14.320312 -36.070312 15.5625 -35.15625 C 16.8125 -34.238281 17.53125 -33.019531 17.71875 -31.5 C 17.78125 -31.257812 17.8125 -31.015625 17.8125 -30.765625 C 17.8125 -30.765625 17.820312 -30.597656 17.84375 -30.265625 C 17.875 -29.929688 17.890625 -29.644531 17.890625 -29.40625 C 19.535156 -31.894531 21.054688 -33.671875 22.453125 -34.734375 C 23.859375 -35.804688 25.140625 -36.445312 26.296875 -36.65625 C 27.453125 -36.875 28.425781 -36.984375 29.21875 -36.984375 C 30.613281 -36.984375 31.722656 -36.40625 32.546875 -35.25 C 33.367188 -34.09375 33.78125 -32.8125 33.78125 -31.40625 C 33.78125 -30.1875 33.71875 -28.9375 33.59375 -27.65625 C 33.476562 -26.382812 33.421875 -25.75 33.421875 -25.75 C 33.421875 -25.75 32.859375 -25.78125 31.734375 -25.84375 C 30.609375 -25.90625 29.492188 -25.9375 28.390625 -25.9375 C 26.992188 -25.9375 25.457031 -25.507812 23.78125 -24.65625 C 22.113281 -23.800781 20.6875 -22.367188 19.5 -20.359375 C 18.3125 -18.347656 17.71875 -15.578125 17.71875 -12.046875 Z M 17.71875 -1.09375 "/></g></g></g><g fill="#000000" fill-opacity="1"><g transform="translate(346.534576, 96.696287)"><g><path d="M 17.984375 -29.40625 C 18.773438 -31.289062 19.828125 -32.75 21.140625 -33.78125 C 22.453125 -34.820312 23.851562 -35.566406 25.34375 -36.015625 C 26.832031 -36.472656 28.195312 -36.75 29.4375 -36.84375 C 30.6875 -36.9375 31.617188 -36.984375 32.234375 -36.984375 C 34.609375 -36.984375 36.554688 -36.375 38.078125 -35.15625 C 39.597656 -33.9375 40.738281 -32.382812 41.5 -30.5 C 42.257812 -28.613281 42.640625 -26.695312 42.640625 -24.75 C 42.640625 -23.039062 42.625 -21.269531 42.59375 -19.4375 C 42.5625 -17.613281 42.546875 -15.851562 42.546875 -14.15625 C 42.546875 -13.363281 42.578125 -12.296875 42.640625 -10.953125 C 42.703125 -9.617188 42.796875 -8.585938 42.921875 -7.859375 C 43.035156 -7.066406 43.320312 -6.378906 43.78125 -5.796875 C 44.238281 -5.222656 44.742188 -4.691406 45.296875 -4.203125 C 44.140625 -2.679688 42.738281 -1.597656 41.09375 -0.953125 C 39.445312 -0.316406 37.648438 0 35.703125 0 C 34.179688 0 32.78125 -0.453125 31.5 -1.359375 C 30.21875 -2.273438 29.488281 -3.492188 29.3125 -5.015625 C 29.25 -5.691406 29.203125 -6.347656 29.171875 -6.984375 C 29.140625 -7.617188 29.125 -8.242188 29.125 -8.859375 C 29.125 -10.929688 29.15625 -12.695312 29.21875 -14.15625 C 29.28125 -15.613281 29.3125 -17.46875 29.3125 -19.71875 C 29.3125 -22.03125 28.898438 -23.582031 28.078125 -24.375 C 27.253906 -25.164062 26.082031 -25.5625 24.5625 -25.5625 C 22.738281 -25.5625 21.351562 -25.117188 20.40625 -24.234375 C 19.46875 -23.359375 18.8125 -22.3125 18.4375 -21.09375 C 18.070312 -19.875 17.890625 -18.78125 17.890625 -17.8125 C 17.835938 -17.445312 17.8125 -16.894531 17.8125 -16.15625 C 17.8125 -15.425781 17.8125 -14.878906 17.8125 -14.515625 L 17.8125 -1.09375 C 16.832031 -0.664062 15.75 -0.375 14.5625 -0.21875 C 13.375 -0.0703125 12.171875 0 10.953125 0 C 9.429688 0 8.03125 -0.253906 6.75 -0.765625 C 5.476562 -1.285156 4.691406 -2.550781 4.390625 -4.5625 C 4.390625 -6.332031 4.398438 -7.488281 4.421875 -8.03125 C 4.453125 -8.582031 4.46875 -8.945312 4.46875 -9.125 C 4.46875 -9.3125 4.46875 -9.707031 4.46875 -10.3125 L 4.5625 -22.375 C 4.5625 -23.164062 4.53125 -23.941406 4.46875 -24.703125 C 4.414062 -25.460938 4.328125 -26.207031 4.203125 -26.9375 C 4.140625 -27.726562 3.863281 -28.425781 3.375 -29.03125 C 2.882812 -29.644531 2.367188 -30.164062 1.828125 -30.59375 C 2.984375 -32.113281 4.394531 -33.484375 6.0625 -34.703125 C 7.738281 -35.921875 9.519531 -36.53125 11.40625 -36.53125 C 12.988281 -36.53125 14.40625 -36.070312 15.65625 -35.15625 C 16.90625 -34.238281 17.625 -33.019531 17.8125 -31.5 C 17.863281 -31.257812 17.890625 -31.015625 17.890625 -30.765625 C 17.890625 -30.765625 17.90625 -30.597656 17.9375 -30.265625 C 17.96875 -29.929688 17.984375 -29.644531 17.984375 -29.40625 Z M 17.984375 -29.40625 "/></g></g></g><g fill="#000000" fill-opacity="1"><g transform="translate(393.653567, 96.696287)"><g><path d="M 4.390625 -33.328125 C 4.390625 -37.410156 4.34375 -40.742188 4.25 -43.328125 C 4.15625 -45.910156 3.804688 -47.445312 3.203125 -47.9375 C 4.359375 -49.394531 5.570312 -50.410156 6.84375 -50.984375 C 8.125 -51.566406 9.675781 -51.859375 11.5 -51.859375 L 35.515625 -51.859375 C 36.492188 -51.859375 37.363281 -51.921875 38.125 -52.046875 C 38.882812 -52.171875 39.476562 -52.445312 39.90625 -52.875 C 41.300781 -52.320312 42.425781 -51.617188 43.28125 -50.765625 C 44.132812 -49.910156 44.5625 -48.785156 44.5625 -47.390625 C 44.5625 -45.566406 44.039062 -44.132812 43 -43.09375 C 41.96875 -42.0625 40.628906 -41.546875 38.984375 -41.546875 L 17.265625 -41.546875 L 17.265625 -32.234375 L 29.125 -32.234375 C 30.101562 -32.234375 30.988281 -32.265625 31.78125 -32.328125 C 32.570312 -32.390625 33.179688 -32.539062 33.609375 -32.78125 C 35.003906 -32.226562 36.113281 -31.601562 36.9375 -30.90625 C 37.757812 -30.207031 38.171875 -29.160156 38.171875 -27.765625 C 38.171875 -25.929688 37.648438 -24.5 36.609375 -23.46875 C 35.578125 -22.4375 34.238281 -21.921875 32.59375 -21.921875 L 17.265625 -21.921875 L 17.265625 -9.671875 L 35.515625 -9.671875 C 36.492188 -9.671875 37.378906 -9.6875 38.171875 -9.71875 C 38.960938 -9.75 39.628906 -9.828125 40.171875 -9.953125 C 41.578125 -9.398438 42.660156 -8.820312 43.421875 -8.21875 C 44.179688 -7.613281 44.5625 -6.609375 44.5625 -5.203125 C 44.5625 -3.378906 44.039062 -2.054688 43 -1.234375 C 41.96875 -0.410156 40.628906 0 38.984375 0 L 10.140625 0 C 8.492188 0 7.125 -0.226562 6.03125 -0.6875 C 4.9375 -1.144531 4.390625 -2.039062 4.390625 -3.375 Z M 4.390625 -33.328125 "/></g></g></g><g fill="#000000" fill-opacity="1"><g transform="translate(439.585432, 96.696287)"><g><path d="M 17.984375 -29.40625 C 18.773438 -31.289062 19.828125 -32.75 21.140625 -33.78125 C 22.453125 -34.820312 23.851562 -35.566406 25.34375 -36.015625 C 26.832031 -36.472656 28.195312 -36.75 29.4375 -36.84375 C 30.6875 -36.9375 31.617188 -36.984375 32.234375 -36.984375 C 34.609375 -36.984375 36.554688 -36.375 38.078125 -35.15625 C 39.597656 -33.9375 40.738281 -32.382812 41.5 -30.5 C 42.257812 -28.613281 42.640625 -26.695312 42.640625 -24.75 C 42.640625 -23.039062 42.625 -21.269531 42.59375 -19.4375 C 42.5625 -17.613281 42.546875 -15.851562 42.546875 -14.15625 C 42.546875 -13.363281 42.578125 -12.296875 42.640625 -10.953125 C 42.703125 -9.617188 42.796875 -8.585938 42.921875 -7.859375 C 43.035156 -7.066406 43.320312 -6.378906 43.78125 -5.796875 C 44.238281 -5.222656 44.742188 -4.691406 45.296875 -4.203125 C 44.140625 -2.679688 42.738281 -1.597656 41.09375 -0.953125 C 39.445312 -0.316406 37.648438 0 35.703125 0 C 34.179688 0 32.78125 -0.453125 31.5 -1.359375 C 30.21875 -2.273438 29.488281 -3.492188 29.3125 -5.015625 C 29.25 -5.691406 29.203125 -6.347656 29.171875 -6.984375 C 29.140625 -7.617188 29.125 -8.242188 29.125 -8.859375 C 29.125 -10.929688 29.15625 -12.695312 29.21875 -14.15625 C 29.28125 -15.613281 29.3125 -17.46875 29.3125 -19.71875 C 29.3125 -22.03125 28.898438 -23.582031 28.078125 -24.375 C 27.253906 -25.164062 26.082031 -25.5625 24.5625 -25.5625 C 22.738281 -25.5625 21.351562 -25.117188 20.40625 -24.234375 C 19.46875 -23.359375 18.8125 -22.3125 18.4375 -21.09375 C 18.070312 -19.875 17.890625 -18.78125 17.890625 -17.8125 C 17.835938 -17.445312 17.8125 -16.894531 17.8125 -16.15625 C 17.8125 -15.425781 17.8125 -14.878906 17.8125 -14.515625 L 17.8125 -1.09375 C 16.832031 -0.664062 15.75 -0.375 14.5625 -0.21875 C 13.375 -0.0703125 12.171875 0 10.953125 0 C 9.429688 0 8.03125 -0.253906 6.75 -0.765625 C 5.476562 -1.285156 4.691406 -2.550781 4.390625 -4.5625 C 4.390625 -6.332031 4.398438 -7.488281 4.421875 -8.03125 C 4.453125 -8.582031 4.46875 -8.945312 4.46875 -9.125 C 4.46875 -9.3125 4.46875 -9.707031 4.46875 -10.3125 L 4.5625 -22.375 C 4.5625 -23.164062 4.53125 -23.941406 4.46875 -24.703125 C 4.414062 -25.460938 4.328125 -26.207031 4.203125 -26.9375 C 4.140625 -27.726562 3.863281 -28.425781 3.375 -29.03125 C 2.882812 -29.644531 2.367188 -30.164062 1.828125 -30.59375 C 2.984375 -32.113281 4.394531 -33.484375 6.0625 -34.703125 C 7.738281 -35.921875 9.519531 -36.53125 11.40625 -36.53125 C 12.988281 -36.53125 14.40625 -36.070312 15.65625 -35.15625 C 16.90625 -34.238281 17.625 -33.019531 17.8125 -31.5 C 17.863281 -31.257812 17.890625 -31.015625 17.890625 -30.765625 C 17.890625 -30.765625 17.90625 -30.597656 17.9375 -30.265625 C 17.96875 -29.929688 17.984375 -29.644531 17.984375 -29.40625 Z M 17.984375 -29.40625 "/></g></g></g><g fill="#000000" fill-opacity="1"><g transform="translate(486.704412, 96.696287)"><g><path d="M 41.546875 -32.78125 C 41.179688 -32.414062 40.890625 -31.742188 40.671875 -30.765625 C 40.460938 -29.796875 40.3125 -28.734375 40.21875 -27.578125 C 40.132812 -26.421875 40.09375 -25.351562 40.09375 -24.375 C 40.09375 -23.945312 40.101562 -23.566406 40.125 -23.234375 C 40.15625 -22.898438 40.171875 -22.613281 40.171875 -22.375 L 40.171875 -3.5625 C 40.171875 -0.632812 39.988281 2.164062 39.625 4.84375 C 39.257812 7.519531 38.453125 9.90625 37.203125 12 C 35.960938 14.101562 34.09375 15.75 31.59375 16.9375 C 29.09375 18.125 25.679688 18.71875 21.359375 18.71875 C 18.804688 18.71875 16.175781 18.378906 13.46875 17.703125 C 10.757812 17.035156 8.488281 16.03125 6.65625 14.6875 C 4.832031 13.351562 3.921875 11.710938 3.921875 9.765625 C 3.921875 8.734375 4.347656 7.5625 5.203125 6.25 C 6.054688 4.945312 7.0625 4.296875 8.21875 4.296875 C 9.675781 4.296875 11 4.613281 12.1875 5.25 C 13.375 5.882812 14.664062 6.550781 16.0625 7.25 C 17.46875 7.957031 19.207031 8.367188 21.28125 8.484375 C 23.289062 8.484375 24.71875 8.363281 25.5625 8.125 C 26.414062 7.882812 26.914062 7.289062 27.0625 6.34375 C 27.21875 5.40625 27.296875 3.898438 27.296875 1.828125 L 27.296875 -2.921875 C 26.078125 -1.828125 24.707031 -1.035156 23.1875 -0.546875 C 21.664062 -0.0546875 20.234375 0.226562 18.890625 0.3125 C 17.554688 0.40625 16.523438 0.453125 15.796875 0.453125 C 11.835938 0.453125 8.851562 -0.304688 6.84375 -1.828125 C 4.832031 -3.347656 3.492188 -5.351562 2.828125 -7.84375 C 2.160156 -10.34375 1.828125 -13.085938 1.828125 -16.078125 L 1.828125 -17.265625 C 2.003906 -24.140625 3.28125 -29.144531 5.65625 -32.28125 C 8.03125 -35.414062 11.164062 -36.984375 15.0625 -36.984375 C 16.832031 -36.984375 18.796875 -36.738281 20.953125 -36.25 C 23.117188 -35.757812 25.234375 -34.269531 27.296875 -31.78125 L 27.296875 -32.140625 C 27.546875 -33.660156 27.988281 -34.878906 28.625 -35.796875 C 29.257812 -36.710938 30.34375 -37.171875 31.875 -37.171875 C 33.820312 -37.171875 35.628906 -36.816406 37.296875 -36.109375 C 38.972656 -35.410156 40.390625 -34.300781 41.546875 -32.78125 Z M 27.21875 -23.5625 C 24.894531 -24.957031 22.820312 -25.65625 21 -25.65625 C 19.351562 -25.65625 18 -25.132812 16.9375 -24.09375 C 15.875 -23.0625 15.3125 -21.601562 15.25 -19.71875 L 15.25 -18.171875 C 15.25 -15.003906 15.566406 -12.71875 16.203125 -11.3125 C 16.847656 -9.914062 18.019531 -9.1875 19.71875 -9.125 C 20.144531 -9.125 20.828125 -9.140625 21.765625 -9.171875 C 22.710938 -9.203125 23.703125 -9.289062 24.734375 -9.4375 C 25.773438 -9.59375 26.601562 -9.828125 27.21875 -10.140625 Z M 27.21875 -23.5625 "/></g></g></g><g fill="#000000" fill-opacity="1"><g transform="translate(531.266541, 96.696287)"><g><path d="M 4.390625 -33.328125 C 4.390625 -37.410156 4.34375 -40.742188 4.25 -43.328125 C 4.15625 -45.910156 3.804688 -47.445312 3.203125 -47.9375 C 5.390625 -50.738281 8.3125 -52.140625 11.96875 -52.140625 L 12.328125 -52.140625 C 14.828125 -52.078125 16.347656 -51.570312 16.890625 -50.625 C 17.441406 -49.6875 17.71875 -48.242188 17.71875 -46.296875 L 17.71875 -7.671875 C 17.894531 -6.691406 18.03125 -5.882812 18.125 -5.25 C 18.21875 -4.613281 18.414062 -4.140625 18.71875 -3.828125 C 18.164062 -2.921875 17.628906 -2.191406 17.109375 -1.640625 C 16.597656 -1.097656 15.867188 -0.6875 14.921875 -0.40625 C 13.984375 -0.132812 12.539062 0 10.59375 0 C 8.945312 0 7.578125 -0.226562 6.484375 -0.6875 C 5.390625 -1.144531 4.84375 -2.039062 4.84375 -3.375 Z M 4.390625 -33.328125 "/></g></g></g><g fill="#000000" fill-opacity="1"><g transform="translate(553.364972, 96.696287)"><g><path d="M 16.703125 -44.65625 C 16.703125 -43.800781 16.304688 -43.097656 15.515625 -42.546875 C 14.734375 -42.003906 13.820312 -41.609375 12.78125 -41.359375 C 11.75 -41.117188 10.867188 -41 10.140625 -41 C 8.734375 -41 7.554688 -41.039062 6.609375 -41.125 C 5.671875 -41.21875 4.6875 -41.476562 3.65625 -41.90625 L 3.65625 -47.75 C 3.65625 -50.4375 3.347656 -52.113281 2.734375 -52.78125 C 3.585938 -53.875 4.679688 -54.570312 6.015625 -54.875 C 7.359375 -55.175781 8.734375 -55.328125 10.140625 -55.328125 C 10.929688 -55.328125 11.828125 -55.175781 12.828125 -54.875 C 13.835938 -54.570312 14.722656 -54.144531 15.484375 -53.59375 C 16.242188 -53.050781 16.648438 -52.414062 16.703125 -51.6875 Z M 4.015625 -4.015625 C 3.773438 -13.816406 3.671875 -21.242188 3.703125 -26.296875 C 3.734375 -31.347656 3.441406 -34.117188 2.828125 -34.609375 C 4.046875 -35.523438 5.050781 -36.070312 5.84375 -36.25 C 6.632812 -36.4375 7.941406 -36.53125 9.765625 -36.53125 L 10.140625 -36.53125 C 12.628906 -36.46875 14.359375 -35.960938 15.328125 -35.015625 C 16.304688 -34.078125 16.796875 -32.632812 16.796875 -30.6875 L 16.796875 -7.21875 C 16.984375 -6.238281 17.117188 -5.503906 17.203125 -5.015625 C 17.296875 -4.535156 17.5 -4.140625 17.8125 -3.828125 C 16.957031 -2.492188 15.90625 -1.445312 14.65625 -0.6875 C 13.40625 0.0703125 11.320312 0.453125 8.40625 0.453125 C 6.757812 0.453125 5.628906 0.0390625 5.015625 -0.78125 C 4.410156 -1.601562 4.078125 -2.679688 4.015625 -4.015625 Z M 4.015625 -4.015625 "/></g></g></g><g fill="#000000" fill-opacity="1"><g transform="translate(573.91102, 96.696287)"><g><path d="M 22.28125 -36.984375 C 24.894531 -36.984375 27.328125 -36.707031 29.578125 -36.15625 C 31.835938 -35.613281 33.664062 -34.671875 35.0625 -33.328125 C 36.46875 -31.984375 37.171875 -30.128906 37.171875 -27.765625 C 37.171875 -26.972656 36.863281 -26.085938 36.25 -25.109375 C 35.644531 -24.140625 34.734375 -23.65625 33.515625 -23.65625 C 31.867188 -23.65625 30.738281 -23.789062 30.125 -24.0625 C 29.519531 -24.332031 29.066406 -24.648438 28.765625 -25.015625 C 28.460938 -25.378906 27.941406 -25.695312 27.203125 -25.96875 C 26.472656 -26.25 25.195312 -26.390625 23.375 -26.390625 C 22.28125 -26.390625 21.140625 -26.3125 19.953125 -26.15625 C 18.765625 -26.007812 18.171875 -25.476562 18.171875 -24.5625 C 18.171875 -23.957031 18.867188 -23.425781 20.265625 -22.96875 C 21.671875 -22.507812 23.390625 -21.988281 25.421875 -21.40625 C 27.460938 -20.832031 29.503906 -20.101562 31.546875 -19.21875 C 33.585938 -18.332031 35.304688 -17.191406 36.703125 -15.796875 C 38.109375 -14.398438 38.8125 -12.632812 38.8125 -10.5 C 38.8125 -8.0625 38.125 -6.113281 36.75 -4.65625 C 35.382812 -3.195312 33.648438 -2.101562 31.546875 -1.375 C 29.441406 -0.644531 27.265625 -0.160156 25.015625 0.078125 C 22.765625 0.328125 20.785156 0.453125 19.078125 0.453125 C 14.273438 0.453125 10.363281 -0.304688 7.34375 -1.828125 C 4.332031 -3.347656 2.828125 -5.722656 2.828125 -8.953125 C 2.828125 -9.492188 2.914062 -10.191406 3.09375 -11.046875 C 3.28125 -11.898438 3.617188 -12.675781 4.109375 -13.375 C 4.597656 -14.070312 5.328125 -14.421875 6.296875 -14.421875 C 8.304688 -14.421875 9.722656 -14.238281 10.546875 -13.875 C 11.367188 -13.507812 11.898438 -13.066406 12.140625 -12.546875 C 12.390625 -12.035156 12.648438 -11.519531 12.921875 -11 C 13.191406 -10.488281 13.769531 -10.046875 14.65625 -9.671875 C 15.539062 -9.304688 17.015625 -9.125 19.078125 -9.125 C 20.054688 -9.125 21.03125 -9.1875 22 -9.3125 C 22.976562 -9.4375 23.46875 -9.894531 23.46875 -10.6875 C 23.46875 -11.476562 22.765625 -12.128906 21.359375 -12.640625 C 19.960938 -13.160156 18.242188 -13.707031 16.203125 -14.28125 C 14.171875 -14.863281 12.117188 -15.640625 10.046875 -16.609375 C 7.972656 -17.585938 6.234375 -18.867188 4.828125 -20.453125 C 3.429688 -22.035156 2.734375 -24.101562 2.734375 -26.65625 C 2.734375 -29.21875 3.375 -31.210938 4.65625 -32.640625 C 5.9375 -34.078125 7.566406 -35.097656 9.546875 -35.703125 C 11.523438 -36.304688 13.640625 -36.671875 15.890625 -36.796875 C 18.140625 -36.921875 20.269531 -36.984375 22.28125 -36.984375 Z M 22.28125 -36.984375 "/></g></g></g><g fill="#000000" fill-opacity="1"><g transform="translate(614.546584, 96.696287)"><g><path d="M 17.984375 -44.921875 L 17.890625 -29.40625 C 18.679688 -31.289062 19.734375 -32.75 21.046875 -33.78125 C 22.359375 -34.820312 23.757812 -35.566406 25.25 -36.015625 C 26.738281 -36.472656 28.109375 -36.75 29.359375 -36.84375 C 30.609375 -36.9375 31.535156 -36.984375 32.140625 -36.984375 C 34.515625 -36.984375 36.460938 -36.375 37.984375 -35.15625 C 39.503906 -33.9375 40.644531 -32.382812 41.40625 -30.5 C 42.164062 -28.613281 42.546875 -26.695312 42.546875 -24.75 C 42.546875 -23.039062 42.53125 -21.269531 42.5 -19.4375 C 42.46875 -17.613281 42.453125 -15.851562 42.453125 -14.15625 C 42.453125 -13.363281 42.484375 -12.296875 42.546875 -10.953125 C 42.609375 -9.617188 42.703125 -8.585938 42.828125 -7.859375 C 42.953125 -7.066406 43.238281 -6.378906 43.6875 -5.796875 C 44.144531 -5.222656 44.648438 -4.691406 45.203125 -4.203125 C 44.046875 -2.679688 42.644531 -1.597656 41 -0.953125 C 39.351562 -0.316406 37.554688 0 35.609375 0 C 34.085938 0 32.6875 -0.453125 31.40625 -1.359375 C 30.132812 -2.273438 29.40625 -3.492188 29.21875 -5.015625 C 29.15625 -5.691406 29.109375 -6.347656 29.078125 -6.984375 C 29.046875 -7.617188 29.03125 -8.242188 29.03125 -8.859375 C 29.03125 -10.929688 29.0625 -12.695312 29.125 -14.15625 C 29.1875 -15.613281 29.21875 -17.46875 29.21875 -19.71875 C 29.21875 -22.03125 28.804688 -23.582031 27.984375 -24.375 C 27.160156 -25.164062 25.988281 -25.5625 24.46875 -25.5625 C 22.644531 -25.5625 21.257812 -25.117188 20.3125 -24.234375 C 19.375 -23.359375 18.722656 -22.3125 18.359375 -21.09375 C 17.992188 -19.875 17.8125 -18.78125 17.8125 -17.8125 C 17.75 -17.445312 17.71875 -16.894531 17.71875 -16.15625 C 17.71875 -15.425781 17.71875 -14.878906 17.71875 -14.515625 L 17.71875 -1.09375 C 16.738281 -0.664062 15.65625 -0.375 14.46875 -0.21875 C 13.28125 -0.0703125 12.078125 0 10.859375 0 C 9.335938 0 7.9375 -0.253906 6.65625 -0.765625 C 5.382812 -1.285156 4.597656 -2.550781 4.296875 -4.5625 C 4.296875 -6.332031 4.3125 -7.488281 4.34375 -8.03125 C 4.375 -8.582031 4.390625 -8.945312 4.390625 -9.125 C 4.390625 -9.3125 4.390625 -9.707031 4.390625 -10.3125 C 4.390625 -10.988281 4.398438 -12.34375 4.421875 -14.375 C 4.453125 -16.414062 4.484375 -18.789062 4.515625 -21.5 C 4.546875 -24.207031 4.578125 -26.898438 4.609375 -29.578125 C 4.640625 -32.265625 4.671875 -34.625 4.703125 -36.65625 C 4.734375 -38.695312 4.75 -40.050781 4.75 -40.71875 C 4.75 -42 4.640625 -43.304688 4.421875 -44.640625 C 4.210938 -45.984375 3.648438 -47.050781 2.734375 -47.84375 C 3.890625 -49.363281 5.132812 -50.457031 6.46875 -51.125 C 7.8125 -51.800781 9.429688 -52.140625 11.328125 -52.140625 C 13.453125 -52.140625 15.09375 -51.695312 16.25 -50.8125 C 17.40625 -49.925781 17.984375 -47.960938 17.984375 -44.921875 Z M 17.984375 -44.921875 "/></g></g></g></svg>